<svg version="1.2" xmlns="http://www.w3.org/2000/svg" viewBox="0 0 265 358" width="265" height="358"><defs><clipPath clipPathUnits="userSpaceOnUse" id="cp1"><path d="m0 0h265v358h-265z"/></clipPath><clipPath clipPathUnits="userSpaceOnUse" id="cp2"><path d="m473.83 294.14c0 14.24-10.84 25.79-24.22 25.79-13.39 0-24.23-11.55-24.23-25.79 0-14.25 10.84-25.79 24.23-25.79 13.38 0 24.22 11.54 24.22 25.79z"/></clipPath><linearGradient id="P" gradientUnits="userSpaceOnUse"/><linearGradient id="g1" x2="1" href="#P" gradientTransform="matrix(-48.455,-51.585,51.485,-48.361,473.833,319.931)"><stop stop-color="#e0dfdf"/><stop offset="1" stop-color="#fff"/></linearGradient><clipPath clipPathUnits="userSpaceOnUse" id="cp3"><path d="m632.36 167.94c0 0 11.32-20.96 35.53-38.07 24.21-17.1 40.26-23.94 45.87-28.33 5.62-4.39 19.92-18.07 23.07-23.16 0 0-16.31-7.63-40.87-5-24.57 2.63-40.06 10.32-55.21 35.47-15.15 25.15-8.39 59.09-8.39 59.09z"/></clipPath></defs><style>.a{fill:url(#g1)}.b{fill:none}.c{fill:#3971c1}.d{fill:#fefefe}</style><g clip-path="url(#cp1)"><g clip-path="url(#cp2)"><path class="a" d="m473.8 319.9q-24.2 0-48.4 0 0-10.4 0-20.9 24.2 0 48.4 0 0 10.5 0 20.9zm0-20.9q-24.2 0-48.4 0c0-15.1 0-21.4 0-30.7q24.2 0 48.4 0c0 9.3 0 15.6 0 30.7z"/></g><path fill-rule="evenodd" class="b" d="m253.5 342.1c0 1.6-0.4 1.9-2 1.9q-120.5 0-241 0c-1.6 0-2-0.3-2-1.9q0.1-83.6 0.1-167.2 0-83.3-0.1-166.7c0-1.6 0.4-1.9 2-1.9q120.5 0 241 0c1.6 0 2 0.3 2 1.9q-0.1 167 0 333.9zm-15-125.1c-2.3-13-7.4-24.8-14.6-35.8-0.5-0.8-1.2-1.4 0.1-2.4 12.9-10 15.4-29.4 2.7-42.9-13.7-14.5-38.7-12.7-50.7 3.4-0.6 0.9-1.1 1.2-2.2 0.8-13.4-5.9-27.6-8.6-42.2-8.9-14.5-0.4-28.5 2.6-41.9 8-1.3 0.5-2.1 0.6-3.2-0.7-7.3-9-17-12.8-28.5-12.3-4 0.2-7.8 1.3-11.8 2.8v-2.7c0-35.4 0-70.7 0.1-106.1 0-1.8-0.3-2.4-2.3-2.4-7.6 0.2-15.3 0.1-22.9 0.1-3.4 0-3-0.5-3 2.9 0 73.3 0 146.7 0 220 0 4.6 0.5 9.1 1.4 13.6 5.5 26.9 19.9 48.2 42.1 64 26.2 18.6 55.4 24.8 87 19.6 28.7-4.7 52.6-18.4 70.5-41.6 18.2-23.4 24.6-50.1 19.4-79.4z"/><path fill-rule="evenodd" class="c" d="m219.1 296.4c-17.9 23.2-41.8 36.9-70.5 41.6-31.6 5.2-60.8-1-87-19.6-22.2-15.8-36.6-37.1-42.1-64-0.9-4.5-1.4-9-1.4-13.6 0-73.3 0-146.7 0-220 0-3.4-0.4-2.9 3-2.9 7.6 0 15.3 0.1 22.9-0.1 2 0 2.3 0.6 2.3 2.4-0.1 35.4-0.1 70.7-0.1 106.1v2.7c4-1.5 7.8-2.6 11.8-2.8 11.5-0.5 21.2 3.3 28.5 12.3 1.1 1.3 1.9 1.2 3.2 0.7 13.4-5.4 27.4-8.4 41.9-8 14.6 0.3 28.8 3 42.2 8.9 1.1 0.4 1.6 0.1 2.2-0.8 12-16.1 37-17.9 50.7-3.4 12.7 13.5 10.2 32.9-2.7 42.9-1.3 1-0.6 1.6-0.1 2.4 7.2 11 12.3 22.8 14.6 35.8 5.2 29.3-1.2 56-19.4 79.4zm-18.4-99.4c-14.3-23.1-35.7-35.5-62.4-38.5-21.9-2.5-41.9 2.7-59.9 15.5-34.3 24.4-42.6 69.9-18.6 103.9 16.7 23.7 40.6 34.2 67 35.2 24.6-0.4 44.3-7.7 60.9-23.1 26.1-24.2 31.7-62.7 13-93z"/><path class="d" d="m167.9 197.8q-2.4-0.1-4.9 0.2 2.5-0.3 4.9-0.2 0.4 0 0.7 0-0.3 0-0.7 0z"/><path fill-rule="evenodd" class="b" d="m187.7 290c-16.6 15.4-36.3 22.7-60.9 23.1-26.4-1-50.3-11.5-67-35.2-24-34-15.7-79.5 18.6-103.9 18-12.8 38-18 59.9-15.5 26.7 3 48.1 15.4 62.4 38.5 18.7 30.3 13.1 68.8-13 93zm-105.6-43.3c8.5-3.2 14.6-9.3 19.3-16.9 3.7-6 6-12.4 5.7-19.6-0.2-6.3-3-10-9.1-11.5-7.9-1.8-15.8-1.4-23.3 1.7-5 1.9-8.8 5.3-11.4 10-2.8 5-4.3 10.3-4.3 16.8 0 3.5 0.7 7.5 2.6 11.3 4.1 8.4 11.8 11.5 20.5 8.2zm83.9 26.3q-0.2 0.1-0.4 0.2c-1.3 1.1-2.6 2.3-4 3.2-11.5 7.9-25.4 3.9-29.8-8.7-0.6-1.4-0.4-1.9 1.3-2.1 4.8-0.6 9.1-2.3 12.4-6 1.8-2 2.8-4.4 1.8-7.1-0.9-2.7-3.3-3.4-5.8-3.7-8.2-0.9-16.5-0.5-24.7-0.2-1.5 0-3 0.4-4.4 1-2.9 1.3-3.9 4.3-2.6 7.3 1.4 3.1 3.8 5 6.8 6.4 2.6 1.3 5.3 2 8.2 2.4 0.8 0.1 1.9 0.1 1.4 1.5-2.1 5.7-6.5 12.2-14.7 13-7.5 0.7-14-1.7-19.4-7-0.2-0.3-0.4-0.4-0.8-0.2q0.2 0.3 0.5 0.5c3.9 6.6 9.8 10.1 17.2 10.9 10.4 1.1 16.3-4.7 19.8-13.9 1 1.9 1.7 3.6 2.6 5.1 2 3.6 4.9 6.4 8.9 7.9 9 3.2 21.2-1.5 25.7-10q0-0.3 0-0.5zm31.3-52.6c-1.7-8.4-5.6-15.4-13.6-19.4q-0.2-0.1-0.4-0.2-0.5-0.2-0.9-0.4c-2.2-1-4.4-1.6-6.6-2q-0.6-0.1-1.2-0.2-0.9-0.1-1.8-0.2-0.1 0-0.3 0-0.2-0.1-0.4-0.1-1.7-0.1-3.5-0.1-0.3 0-0.7 0-2.4-0.1-4.9 0.2-1.1 0.1-2.3 0.3c-7.1 1.1-10.8 5.3-10.9 12.5-0.1 4.9 1 9.5 3.1 13.9 4.6 9.9 11.4 17.9 21.9 22 9 3.5 17.1 0 20.9-8.9 2.5-5.6 2.8-11.5 1.6-17.4z"/><path fill-rule="evenodd" class="c" d="m195.7 237.8c-3.8 8.9-11.9 12.4-20.9 8.9-10.5-4.1-17.3-12.1-21.9-22-2.1-4.4-3.2-9-3.1-13.9 0.1-7.2 3.8-11.4 10.9-12.5q1.2-0.2 2.3-0.3 2.5-0.3 4.9-0.2 0.4 0 0.7 0 1.8 0 3.5 0.1 0.2 0 0.4 0.1 0.2 0 0.3 0 0.9 0.1 1.8 0.2 0.6 0.1 1.2 0.2c2.2 0.4 4.4 1 6.6 2q0.4 0.2 0.9 0.4 0.2 0.1 0.4 0.2c8 4 11.9 11 13.6 19.4 1.2 5.9 0.9 11.8-1.6 17.4zm-25.3-27.9c0-2-1.6-3.5-3.8-3.5-2.2 0-3.8 1.5-3.8 3.5 0.1 1.9 1.7 3.4 3.7 3.4 2.1 0 3.8-1.5 3.9-3.4z"/><path fill-rule="evenodd" class="c" d="m101.4 229.8c-4.7 7.6-10.8 13.7-19.3 16.9-8.7 3.3-16.4 0.2-20.5-8.2-1.9-3.8-2.6-7.8-2.6-11.3 0-6.5 1.5-11.8 4.3-16.8 2.6-4.7 6.4-8.1 11.4-10 7.5-3.1 15.4-3.5 23.3-1.7 6.1 1.5 8.9 5.2 9.1 11.5 0.3 7.2-2 13.6-5.7 19.6zm-7.3-20c0-1.9-1.7-3.4-3.8-3.4-2.1 0-3.7 1.5-3.7 3.4-0.1 1.9 1.6 3.5 3.7 3.5 2.2 0 3.8-1.5 3.8-3.5z"/><path class="c" d="m166 273.5c-4.5 8.5-16.7 13.2-25.7 10-4-1.5-6.9-4.3-8.9-7.9-0.9-1.5-1.6-3.2-2.6-5.1-3.5 9.2-9.4 15-19.8 13.9-7.4-0.8-13.3-4.3-17.2-10.9q0.1-0.1 0.3-0.3c5.4 5.3 11.9 7.7 19.4 7 8.2-0.8 12.6-7.3 14.7-13 0.5-1.4-0.6-1.4-1.4-1.5-2.9-0.4-5.6-1.1-8.2-2.4-3-1.4-5.4-3.3-6.8-6.4-1.3-3-0.3-6 2.6-7.3 1.4-0.6 2.9-1 4.4-1 8.2-0.3 16.5-0.7 24.7 0.2 2.5 0.3 4.9 1 5.8 3.7 1 2.7 0 5.1-1.8 7.1-3.3 3.7-7.6 5.4-12.4 6-1.7 0.2-1.9 0.7-1.3 2.1 4.4 12.6 18.3 16.6 29.8 8.7 1.4-0.9 2.7-2.1 4-3.2q0.2 0.1 0.4 0.3z"/><path class="c" d="m92.1 273.2q-0.2 0.2-0.3 0.3-0.3-0.2-0.5-0.5c0.4-0.2 0.6-0.1 0.8 0.2z"/><path class="c" d="m166 273q0 0.2 0 0.5-0.2-0.2-0.4-0.3 0.2-0.1 0.4-0.2z"/><g clip-path="url(#cp3)"></g></g></svg>