<svg width="174" height="173" viewBox="0 0 174 173" fill="none" xmlns="http://www.w3.org/2000/svg">
<g clip-path="url(#clip0_149_13896)">
<path d="M87.7201 171.079C98.8785 171.06 110.028 168.852 120.322 164.558C130.62 160.28 140.051 153.943 147.923 146.051C155.792 138.156 162.066 128.691 166.29 118.393C170.527 108.097 172.673 96.9674 172.638 85.8489C172.595 74.731 170.373 63.6315 166.076 53.3933C161.799 43.1466 155.461 33.788 147.611 25.9581C139.758 18.1281 130.364 11.8542 120.118 7.62981C109.877 3.39035 98.7988 1.23239 87.7201 1.23894C76.6414 1.22781 65.5621 3.38905 55.3207 7.62851C45.0753 11.8529 35.6808 18.1262 27.8279 25.9568C19.9738 33.7834 13.6385 43.1459 9.3598 53.392C5.06414 63.6308 2.84149 74.7304 2.79901 85.8489C2.76437 96.9674 4.91122 108.098 9.14741 118.394C13.3731 128.692 19.6464 138.157 27.5168 146.052C35.3886 153.943 44.8191 160.28 55.1181 164.559C65.4118 168.852 76.5617 171.06 87.7201 171.079ZM87.7201 171.079C76.5617 171.09 65.4001 168.913 55.0834 164.642C44.7629 160.387 35.2997 154.066 27.3901 146.179C19.481 138.293 13.0986 128.865 8.78992 118.542C4.46224 108.229 2.2239 97.0471 2.18142 85.8489C2.14744 74.6513 4.30932 63.4387 8.57687 53.0678C12.8333 42.6943 19.1536 33.1626 27.079 25.2078C35.0076 17.2589 44.5067 10.8772 54.8808 6.56717C65.2497 2.24211 76.4826 0.0187988 87.7201 -0.000167847C98.9582 0.0142212 110.191 2.2408 120.56 6.56522C130.935 10.8752 140.434 17.2576 148.363 25.2065C156.291 33.158 162.609 42.693 166.866 53.0659C171.134 63.438 173.296 74.6513 173.262 85.8489C173.219 97.0478 170.98 108.23 166.652 118.543C162.343 128.866 155.96 138.295 148.051 146.18C140.141 154.067 130.677 160.387 120.357 164.642C110.04 168.913 98.8778 171.09 87.7201 171.079Z" fill="white"/>
<path d="M38.6794 23.4512C30.158 30.1676 22.9051 38.4909 17.4952 47.8907C12.0748 57.2819 8.4915 67.726 7.02366 78.4654C5.5493 89.2023 6.23028 100.231 9.05941 110.681C11.8709 121.136 16.8482 130.985 23.5521 139.467C30.2554 147.949 38.6787 155.054 48.1745 160.19C57.6599 165.352 68.1942 168.515 78.9186 169.598C89.6463 170.69 100.579 169.668 110.917 166.626C121.262 163.597 130.99 158.535 139.466 151.882C147.946 145.235 155.174 136.987 160.577 127.659C165.989 118.339 169.581 107.963 171.07 97.2839C172.573 86.6091 172.001 75.6245 169.244 65.1831C166.512 54.7377 161.612 44.8668 154.967 36.3388C148.322 27.8103 139.938 20.6345 130.451 15.4174C120.973 10.1859 110.422 6.9012 99.6421 5.78236C88.8621 4.65501 77.8651 5.65231 67.4544 8.68469C57.0377 11.7047 47.2289 16.7708 38.6794 23.4512ZM38.6794 23.4512C47.2106 16.748 57.0109 11.6517 67.4302 8.60039C77.8429 5.53728 88.8542 4.50732 99.6604 5.60852C110.463 6.69797 121.075 9.88654 130.632 15.0867C140.2 20.262 148.687 27.4227 155.439 35.9676C162.193 44.5126 167.207 54.4377 170.04 64.9713C172.89 75.4997 173.573 86.6097 172.09 97.4237C170.612 108.241 167.003 118.76 161.543 128.218C156.095 137.685 148.789 146.067 140.209 152.829C131.603 159.56 121.722 164.66 111.232 167.702C100.747 170.756 89.6705 171.762 78.8127 170.625C67.9543 169.5 57.3253 166.19 47.7759 160.92C38.2167 155.664 29.7685 148.432 23.075 139.841C16.3796 131.25 11.4428 121.303 8.69082 110.779C5.91201 100.259 5.3369 89.1931 6.84983 78.4413C8.34903 67.6835 11.9676 57.2329 17.4187 47.8469C22.86 38.4517 30.1404 30.1447 38.6794 23.4512Z" fill="white"/>
<path d="M161.418 123.255C165.815 113.279 168.254 102.446 168.491 91.5522C168.742 80.6598 166.812 69.7295 162.877 59.5756C158.936 49.4224 152.963 40.0749 145.435 32.2273C137.914 24.3699 128.821 18.051 118.875 13.6841C108.927 9.32437 98.1334 6.92003 87.2887 6.70763C76.444 6.47563 65.5778 8.43556 55.4781 12.3502C45.3778 16.2668 36.0578 22.1767 28.2324 29.6577C20.394 37.1275 14.0841 46.1704 9.70742 56.0681C5.3157 65.9593 2.86299 76.7105 2.59831 87.535C2.3186 98.3574 4.206 109.231 8.09386 119.343C11.9778 129.454 17.8334 138.817 25.2935 146.692C32.7392 154.58 41.7742 160.956 51.6889 165.394C61.6069 169.823 72.398 172.31 83.2715 172.598C94.1416 172.898 105.078 171.039 115.245 167.132C125.409 163.222 134.8 157.305 142.696 149.798C150.603 142.302 156.986 133.215 161.418 123.255ZM161.418 123.255C157.014 133.227 150.653 142.336 142.757 149.863C134.872 157.399 125.484 163.352 115.309 167.298C105.135 171.242 94.188 173.215 83.2623 172.981C72.3366 172.767 61.4625 170.344 51.4419 165.951C41.4252 161.553 32.2634 155.185 24.6863 147.27C17.1034 139.364 11.0883 129.946 7.11682 119.72C3.15251 109.492 1.20891 98.481 1.46313 87.5082C1.70101 76.5334 4.15895 65.6188 8.58793 55.5721C13.047 45.5385 19.4803 36.3845 27.4462 28.8316C35.4016 21.269 44.8615 15.3081 55.0997 11.3699C65.3399 7.4324 76.3584 5.56134 87.309 5.86261C98.2628 6.15344 109.136 8.65907 119.125 13.1207C129.111 17.5889 138.215 24.0138 145.716 31.9601C153.232 39.8939 159.129 49.3257 163.044 59.5109C166.96 69.6975 168.862 80.6513 168.579 91.5542C168.313 102.46 165.842 113.292 161.418 123.255Z" fill="white"/>
<path d="M22.2032 126.21C21.9842 125.991 21.6261 125.882 21.1288 125.882C20.6314 125.882 20.2949 126.062 20.1191 126.422C20.072 126.525 20.0485 126.642 20.0485 126.773C20.0485 126.904 20.1001 127.031 20.2027 127.152C20.306 127.275 20.4386 127.391 20.6014 127.5C20.7641 127.61 20.9477 127.715 21.1516 127.818C21.3549 127.921 21.566 128.033 21.7849 128.153C22.0038 128.273 22.2352 128.4 22.4796 128.532C23.3756 129.021 23.8239 129.562 23.8239 130.156C23.8239 130.75 23.5926 131.207 23.1292 131.527C22.6659 131.846 22.0522 132.006 21.2863 132.006C20.521 132.006 19.8897 131.869 19.3923 131.594C18.895 131.32 18.646 130.965 18.646 130.532C18.646 130.297 18.7244 130.098 18.8806 129.934C19.0375 129.771 19.2368 129.69 19.4792 129.69C19.7211 129.69 19.9217 129.766 20.0805 129.918C20.2393 130.071 20.3184 130.252 20.3184 130.462C20.3184 130.672 20.2452 130.85 20.1001 130.996C20.4432 131.193 20.8687 131.292 21.3764 131.292C21.8849 131.292 22.2417 131.174 22.4476 130.938C22.5332 130.844 22.5763 130.721 22.5763 130.571C22.5763 130.215 22.1816 129.845 21.3928 129.458C20.8438 129.188 20.4321 128.976 20.1576 128.822C19.2786 128.324 18.8388 127.724 18.8388 127.021C18.8388 126.48 19.0629 126.047 19.5113 125.722C19.9589 125.395 20.5308 125.233 21.2255 125.233C21.9202 125.233 22.5044 125.362 22.9783 125.622C23.4521 125.881 23.6886 126.217 23.6886 126.629C23.6886 126.868 23.6311 127.046 23.5155 127.162C23.3135 127.364 23.1207 127.464 22.9364 127.464C22.6365 127.464 22.4097 127.389 22.2574 127.236C22.1058 127.084 22.0293 126.909 22.0293 126.712C22.0293 126.515 22.0875 126.348 22.2032 126.21Z" fill="white"/>
<path d="M26.953 129.365C26.7641 129.62 26.67 129.898 26.67 130.198C26.67 130.498 26.751 130.726 26.9144 130.88C27.0771 131.035 27.281 131.112 27.5255 131.112C28.0228 131.112 28.4345 130.937 28.7606 130.587C29.0867 130.238 29.2495 129.75 29.2495 129.124V128.133C28.975 128.275 28.6842 128.404 28.3777 128.519C28.0712 128.636 27.879 128.708 27.8019 128.738C27.4248 128.901 27.1418 129.11 26.953 129.365ZM30.6389 130.339C30.6389 130.85 30.7395 131.105 30.9415 131.105C31.1336 131.105 31.2754 131.04 31.3656 130.909C31.4558 130.778 31.5009 130.541 31.5009 130.198H32.176C32.1806 130.254 32.1825 130.342 32.1825 130.462C32.1825 130.848 32.0858 131.182 31.893 131.465C31.6571 131.825 31.282 132.006 30.7676 132.006C30.433 132.006 30.1481 131.911 29.9122 131.722C29.6762 131.534 29.5129 131.285 29.4233 130.977C28.8012 131.663 28.0143 132.006 27.0621 132.006C26.5393 132.006 26.0838 131.852 25.6956 131.546C25.3074 131.239 25.1133 130.811 25.1133 130.262C25.1133 129.311 25.8165 128.607 27.2235 128.153C28.1149 127.87 28.6489 127.673 28.8247 127.564C29.0005 127.455 29.1155 127.343 29.1691 127.229C29.2227 127.116 29.2495 126.988 29.2495 126.846C29.2495 126.594 29.1247 126.383 28.8763 126.214C28.628 126.044 28.3038 125.959 27.9052 125.959C27.5065 125.959 27.1549 126.067 26.8504 126.281C27.0647 126.439 27.1719 126.643 27.1719 126.892C27.1719 127.141 27.0889 127.34 26.9242 127.49C26.7589 127.64 26.5595 127.715 26.3262 127.715C26.0923 127.715 25.8995 127.644 25.7472 127.502C25.5949 127.362 25.5185 127.165 25.5185 126.911C25.5185 126.41 25.7714 126.003 26.2779 125.692C26.7837 125.381 27.3993 125.226 28.1241 125.226C29.4187 125.226 30.2095 125.646 30.4971 126.487C30.5918 126.765 30.6389 127.087 30.6389 127.451V130.339Z" fill="white"/>
<path d="M32.6168 131.178C32.99 131.178 33.2462 131.127 33.3854 131.024C33.5246 130.92 33.5945 130.743 33.5945 130.49V123.524C33.5945 123.215 33.5677 123.013 33.5141 122.919C33.4605 122.825 33.3135 122.777 33.0736 122.777H32.5521V122.07C32.9854 122.07 33.3246 122.039 33.569 121.977C33.8134 121.915 33.9879 121.87 34.0931 121.842C34.1977 121.814 34.3082 121.8 34.4238 121.8C34.6473 121.8 34.7957 121.864 34.8715 121.993C34.946 122.122 34.9839 122.332 34.9839 122.623V130.49C34.9839 130.756 35.0401 130.937 35.1538 131.033C35.2675 131.13 35.5322 131.178 35.9485 131.178V131.886H32.6168V131.178Z" fill="white"/>
<path d="M41.8374 130.822C41.3015 131.61 40.5845 132.006 39.6886 132.006C39.0416 132.006 38.5377 131.806 38.1769 131.407C37.8168 131.008 37.6371 130.413 37.6371 129.619V126.949C37.6371 126.641 37.6103 126.439 37.5567 126.344C37.5031 126.25 37.3581 126.204 37.1228 126.204H36.9548V125.496C37.3496 125.496 37.6358 125.465 37.8136 125.403C37.992 125.34 38.1194 125.295 38.1965 125.267C38.2737 125.239 38.3678 125.225 38.4795 125.225C38.6985 125.225 38.8442 125.293 38.9167 125.428C38.9899 125.563 39.0265 125.778 39.0265 126.074V129.664C39.0265 130.135 39.0755 130.457 39.1742 130.629C39.3631 130.959 39.6866 131.124 40.1454 131.124C40.4545 131.124 40.759 131.001 41.059 130.757C41.359 130.513 41.5714 130.228 41.6962 129.902V126.949C41.687 126.633 41.657 126.428 41.606 126.338C41.5544 126.248 41.4106 126.204 41.1747 126.204H40.808V125.496C41.2152 125.496 41.5295 125.465 41.7504 125.403C41.9713 125.34 42.1288 125.295 42.2229 125.267C42.3177 125.239 42.4203 125.225 42.5321 125.225C42.7503 125.225 42.8974 125.29 42.9725 125.418C43.0477 125.547 43.085 125.757 43.085 126.049V130.166C43.085 130.582 43.1046 130.839 43.1431 130.938C43.2117 131.126 43.383 131.22 43.6581 131.22C43.8032 131.22 43.928 131.197 44.0306 131.15V131.774C43.8247 131.928 43.5437 132.006 43.1882 132.006C42.4419 132.006 41.9916 131.61 41.8374 130.822Z" fill="white"/>
<path d="M47.2502 131.015C47.4561 131.161 47.7044 131.233 47.9965 131.233C48.5625 131.233 48.986 130.997 49.2663 130.522C49.5474 130.049 49.6879 129.394 49.6879 128.557C49.6879 127.314 49.3605 126.516 48.7043 126.165C48.4939 126.053 48.2619 125.997 48.0089 125.997C47.5031 125.997 47.1064 126.231 46.8189 126.696C46.532 127.161 46.3882 127.781 46.3882 128.557C46.3882 129.797 46.6757 130.616 47.2502 131.015ZM49.8421 130.86C49.3323 131.624 48.6376 132.006 47.758 132.006C46.8796 132.006 46.1817 131.716 45.6647 131.137C45.1478 130.558 44.8896 129.779 44.8896 128.802C44.8896 127.601 45.1543 126.705 45.6843 126.114C46.2137 125.522 46.9391 125.226 47.8613 125.226C48.5599 125.226 49.1585 125.466 49.6558 125.946V123.572C49.6558 123.268 49.6245 123.068 49.5624 122.971C49.5003 122.875 49.3493 122.826 49.1088 122.826H48.6527V122.119C49.0768 122.119 49.4095 122.088 49.6493 122.025C49.8898 121.963 50.061 121.919 50.1636 121.891C50.2669 121.862 50.376 121.849 50.4917 121.849C50.7191 121.849 50.8681 121.914 50.9394 122.045C51.01 122.176 51.0453 122.385 51.0453 122.672V130.166C51.0453 130.582 51.0622 130.839 51.0969 130.938C51.1694 131.126 51.3452 131.22 51.6243 131.22C51.7654 131.22 51.8877 131.197 51.9909 131.15V131.774C51.7851 131.928 51.506 132.006 51.1544 132.006C50.4512 132.006 50.014 131.624 49.8421 130.86Z" fill="white"/>
<path d="M54.7529 129.365C54.564 129.62 54.4699 129.898 54.4699 130.198C54.4699 130.498 54.551 130.726 54.7143 130.88C54.8771 131.035 55.081 131.112 55.3254 131.112C55.8227 131.112 56.2345 130.937 56.5606 130.587C56.886 130.238 57.0494 129.75 57.0494 129.124V128.133C56.7749 128.275 56.4841 128.404 56.1776 128.519C55.8711 128.636 55.679 128.708 55.6018 128.738C55.2247 128.901 54.9418 129.11 54.7529 129.365ZM58.4388 130.339C58.4388 130.85 58.5395 131.105 58.7407 131.105C58.9335 131.105 59.0753 131.04 59.1655 130.909C59.2557 130.778 59.3002 130.541 59.3002 130.198H59.9759C59.9805 130.254 59.9825 130.342 59.9825 130.462C59.9825 130.848 59.8857 131.182 59.6929 131.465C59.457 131.825 59.0819 132.006 58.5669 132.006C58.2329 132.006 57.9474 131.911 57.7114 131.722C57.4762 131.534 57.3128 131.285 57.2226 130.977C56.6011 131.663 55.8142 132.006 54.862 132.006C54.3392 132.006 53.883 131.852 53.4955 131.546C53.1073 131.239 52.9132 130.811 52.9132 130.262C52.9132 129.311 53.6164 128.607 55.0235 128.153C55.9149 127.87 56.4488 127.673 56.6246 127.564C56.8004 127.455 56.9154 127.343 56.969 127.229C57.0226 127.116 57.0494 126.988 57.0494 126.846C57.0494 126.594 56.9246 126.383 56.6762 126.214C56.4272 126.044 56.1037 125.959 55.7051 125.959C55.3058 125.959 54.9542 126.067 54.6496 126.281C54.864 126.439 54.9712 126.643 54.9712 126.892C54.9712 127.141 54.8888 127.34 54.7241 127.49C54.5588 127.64 54.3595 127.715 54.1255 127.715C53.8922 127.715 53.6988 127.644 53.5471 127.502C53.3942 127.362 53.3184 127.165 53.3184 126.911C53.3184 126.41 53.5713 126.003 54.0771 125.692C54.5836 125.381 55.1986 125.226 55.9234 125.226C57.2187 125.226 58.0094 125.646 58.297 126.487C58.3911 126.765 58.4388 127.087 58.4388 127.451V130.339Z" fill="white"/>
<path d="M62.545 128.693C62.545 129.478 62.694 130.098 62.992 130.552C63.2901 131.007 63.6946 131.234 64.205 131.234C64.7102 131.234 65.1101 131 65.4042 130.532C65.6983 130.066 65.8447 129.445 65.8447 128.674C65.8447 127.444 65.5532 126.624 64.9696 126.217C64.7598 126.075 64.5122 126.004 64.2272 126.004C63.9416 126.004 63.6965 126.073 63.4907 126.21C63.2848 126.348 63.1136 126.536 62.9764 126.776C62.6888 127.269 62.545 127.908 62.545 128.693ZM62.4163 131.125C62.232 131.301 62.1398 131.551 62.1398 131.877H61.1876V123.573C61.1876 123.264 61.1608 123.063 61.1073 122.968C61.0537 122.874 60.9066 122.826 60.6668 122.826H60.21V122.119C60.6256 122.119 60.953 122.089 61.1909 122.026C61.4288 121.964 61.5981 121.919 61.6994 121.891C61.8 121.863 61.9085 121.849 62.0242 121.849C62.2516 121.849 62.4006 121.915 62.4712 122.045C62.5418 122.176 62.577 122.386 62.577 122.673V126.12C63.0358 125.524 63.6933 125.226 64.5488 125.226C65.4042 125.226 66.0839 125.499 66.5878 126.046C67.0916 126.593 67.3439 127.398 67.3439 128.462C67.3439 129.525 67.0805 130.382 66.5557 131.031C66.0303 131.681 65.2957 132.006 64.3527 132.006C63.5763 132.006 62.9306 131.712 62.4163 131.125Z" fill="white"/>
<path d="M68.4857 131.178C68.8589 131.178 69.1151 131.127 69.2543 131.024C69.3935 130.92 69.4634 130.743 69.4634 130.49V123.524C69.4634 123.215 69.4366 123.013 69.383 122.919C69.3294 122.825 69.1824 122.777 68.9425 122.777H68.421V122.07C68.8543 122.07 69.1935 122.039 69.4379 121.977C69.6823 121.915 69.8568 121.87 69.962 121.842C70.0666 121.814 70.1777 121.8 70.2934 121.8C70.5162 121.8 70.6652 121.864 70.7404 121.993C70.8149 122.122 70.8528 122.332 70.8528 122.623V130.49C70.8528 130.756 70.9097 130.937 71.0234 131.033C71.1371 131.13 71.4018 131.178 71.8181 131.178V131.886H68.4857V131.178Z" fill="white"/>
<path d="M77.5072 127.947C77.5072 126.634 77.0609 125.978 76.1695 125.978C75.6675 125.978 75.2761 126.174 74.9951 126.564C74.714 126.954 74.5611 127.495 74.5356 128.185H77.5007C77.5046 128.103 77.5072 128.024 77.5072 127.947ZM78.9927 128.912H74.5284C74.5284 129.649 74.7036 130.22 75.0532 130.623C75.4029 131.026 75.8342 131.228 76.3492 131.228C77.0393 131.228 77.5347 130.942 77.8353 130.372L78.7934 130.365C78.6947 130.824 78.413 131.212 77.9477 131.529C77.4824 131.847 76.855 132.006 76.0662 132.006C75.2774 132.006 74.5951 131.761 74.0206 131.273C73.3344 130.684 72.9913 129.857 72.9913 128.789C72.9913 127.721 73.2652 126.861 73.8115 126.207C74.3585 125.553 75.1421 125.226 76.1623 125.226C77.5046 125.226 78.3732 125.766 78.7679 126.846C78.926 127.28 79.0058 127.689 79.0058 128.076C79.0058 128.461 79.0012 128.74 78.9927 128.912Z" fill="white"/>
<path d="M88.403 125.991C88.8363 125.644 89.1448 125.32 89.3291 125.017C89.5134 124.714 89.6055 124.375 89.6055 123.997C89.6055 123.629 89.4944 123.333 89.2715 123.11C89.048 122.886 88.7886 122.775 88.4932 122.775C88.1926 122.775 87.9717 122.892 87.8305 123.126C87.6894 123.36 87.6181 123.646 87.6181 123.985C87.6181 124.323 87.7181 124.692 87.9174 125.088C88.1168 125.485 88.2788 125.786 88.403 125.991ZM87.5606 127.155C86.8058 127.623 86.428 128.281 86.428 129.13C86.428 129.722 86.6058 130.2 86.962 130.565C87.3181 130.929 87.775 131.112 88.3324 131.112C88.8899 131.112 89.4192 130.91 89.9212 130.507C89.1193 129.508 88.3324 128.391 87.5606 127.155ZM90.4355 131.086C89.7578 131.699 88.9565 132.006 88.0298 132.006C87.1038 132.006 86.3588 131.75 85.7948 131.237C85.2308 130.724 84.9491 130.057 84.9491 129.234C84.9491 128.68 85.1523 128.159 85.5595 127.67C85.9673 127.181 86.5097 126.806 87.1874 126.545C86.7672 125.85 86.513 125.348 86.4254 125.036C86.3372 124.726 86.2928 124.448 86.2928 124.203C86.2928 123.641 86.4999 123.151 86.9136 122.73C87.3273 122.31 87.8756 122.1 88.5572 122.1C89.5049 122.1 90.1852 122.396 90.5963 122.987C90.7636 123.224 90.8472 123.5 90.8472 123.817C90.8472 124.782 90.163 125.723 88.7951 126.641C89.4258 127.644 90.0943 128.608 90.8021 129.529C91.2184 128.924 91.5269 128.253 91.7282 127.516C91.7543 127.426 91.7667 127.322 91.7667 127.204C91.7667 127.086 91.6994 126.966 91.5641 126.844C91.4295 126.721 91.1818 126.652 90.8217 126.634L90.7766 126.004H94.1018L94.1469 126.634C93.5639 126.682 93.1437 126.89 92.8862 127.259C92.8006 127.374 92.5895 127.764 92.253 128.429C91.9157 129.094 91.5909 129.654 91.2779 130.108C91.7713 130.679 92.1745 131.039 92.4876 131.188C92.6248 131.253 92.7745 131.286 92.9379 131.286C93.281 131.286 93.5378 131.169 93.7097 130.938C93.5169 130.904 93.3633 130.815 93.2502 130.671C93.1359 130.527 93.079 130.347 93.079 130.131C93.079 129.914 93.1699 129.72 93.3528 129.548C93.5352 129.377 93.7169 129.292 93.8992 129.292C94.0815 129.292 94.2266 129.317 94.3338 129.368C94.6514 129.518 94.8096 129.763 94.8096 130.101C94.8096 130.707 94.6089 131.175 94.2083 131.507C93.807 131.839 93.343 132.006 92.8156 132.006C91.8634 132.006 91.0701 131.699 90.4355 131.086Z" fill="white"/>
<path d="M102.598 131.015C102.804 131.161 103.053 131.233 103.345 131.233C103.911 131.233 104.334 130.997 104.615 130.522C104.896 130.049 105.036 129.394 105.036 128.557C105.036 127.314 104.709 126.516 104.052 126.165C103.842 126.053 103.611 125.997 103.358 125.997C102.851 125.997 102.455 126.231 102.168 126.696C101.88 127.161 101.736 127.781 101.736 128.557C101.736 129.797 102.024 130.616 102.598 131.015ZM105.191 130.86C104.68 131.624 103.986 132.006 103.106 132.006C102.228 132.006 101.53 131.716 101.013 131.137C100.496 130.558 100.238 129.779 100.238 128.802C100.238 127.601 100.502 126.705 101.032 126.114C101.562 125.522 102.287 125.226 103.209 125.226C103.908 125.226 104.507 125.466 105.004 125.946V123.572C105.004 123.268 104.973 123.068 104.911 122.971C104.848 122.875 104.697 122.826 104.458 122.826H104.001V122.119C104.425 122.119 104.758 122.088 104.997 122.025C105.238 121.963 105.409 121.919 105.512 121.891C105.615 121.862 105.725 121.849 105.84 121.849C106.067 121.849 106.217 121.914 106.288 122.045C106.358 122.176 106.393 122.385 106.393 122.672V130.166C106.393 130.582 106.41 130.839 106.445 130.938C106.518 131.126 106.694 131.22 106.972 131.22C107.114 131.22 107.236 131.197 107.339 131.15V131.774C107.133 131.928 106.854 132.006 106.503 132.006C105.799 132.006 105.362 131.624 105.191 130.86Z" fill="white"/>
<path d="M112.739 127.947C112.739 126.634 112.293 125.978 111.401 125.978C110.899 125.978 110.508 126.174 110.227 126.564C109.947 126.954 109.793 127.495 109.768 128.185H112.733C112.737 128.103 112.739 128.024 112.739 127.947ZM114.225 128.912H109.761C109.761 129.649 109.936 130.22 110.285 130.623C110.635 131.026 111.067 131.228 111.581 131.228C112.271 131.228 112.767 130.942 113.067 130.372L114.025 130.365C113.927 130.824 113.645 131.212 113.18 131.529C112.714 131.847 112.087 132.006 111.298 132.006C110.509 132.006 109.827 131.761 109.253 131.273C108.566 130.684 108.223 129.857 108.223 128.789C108.223 127.721 108.497 126.861 109.043 126.207C109.59 125.553 110.374 125.226 111.395 125.226C112.737 125.226 113.605 125.766 114 126.846C114.158 127.28 114.238 127.689 114.238 128.076C114.238 128.461 114.233 128.74 114.225 128.912Z" fill="white"/>
<path d="M115.406 131.178C115.779 131.178 116.035 131.127 116.174 131.024C116.313 130.92 116.383 130.743 116.383 130.49V123.524C116.383 123.215 116.356 123.013 116.303 122.919C116.249 122.825 116.102 122.777 115.862 122.777H115.341V122.07C115.774 122.07 116.113 122.039 116.358 121.977C116.602 121.915 116.777 121.87 116.882 121.842C116.986 121.814 117.097 121.8 117.213 121.8C117.436 121.8 117.584 121.864 117.66 121.993C117.735 122.122 117.773 122.332 117.773 122.623V130.49C117.773 130.756 117.829 130.937 117.943 131.033C118.056 131.13 118.322 131.178 118.737 131.178V131.886H115.406V131.178Z" fill="white"/>
<path d="M121.499 124.045C121.22 124.045 120.984 123.951 120.789 123.765C120.594 123.579 120.496 123.351 120.496 123.079C120.496 122.806 120.594 122.573 120.792 122.382C120.989 122.191 121.225 122.096 121.499 122.096C121.774 122.096 122.01 122.191 122.207 122.382C122.405 122.573 122.503 122.806 122.503 123.079C122.503 123.351 122.405 123.579 122.21 123.765C122.015 123.951 121.778 124.045 121.499 124.045ZM119.859 131.178C120.258 131.178 120.507 131.141 120.609 131.066C120.709 130.99 120.771 130.91 120.792 130.824C120.813 130.739 120.824 130.632 120.824 130.503V126.959C120.824 126.65 120.798 126.448 120.743 126.354C120.69 126.259 120.545 126.212 120.309 126.212H119.847V125.505C120.266 125.505 120.597 125.474 120.837 125.412C121.077 125.349 121.247 125.305 121.345 125.277C121.444 125.248 121.551 125.235 121.667 125.235C121.89 125.235 122.037 125.3 122.107 125.431C122.178 125.562 122.213 125.771 122.213 126.058V130.503C122.213 130.773 122.256 130.943 122.343 131.011C122.488 131.122 122.765 131.178 123.172 131.178V131.886H119.859V131.178Z" fill="white"/>
<path d="M128.7 126.416C128.451 126.116 128.104 125.966 127.658 125.966C126.822 125.966 126.277 126.442 126.024 127.393C125.939 127.728 125.896 128.129 125.896 128.596C125.896 129.467 126.063 130.123 126.398 130.565C126.732 131.006 127.15 131.227 127.652 131.227C128.021 131.227 128.334 131.12 128.591 130.905C128.848 130.691 129.027 130.384 129.125 129.986H130.006C130.006 130.517 129.772 130.987 129.302 131.394C128.832 131.801 128.196 132.006 127.391 132.006C126.588 132.006 125.905 131.754 125.343 131.252C124.683 130.665 124.353 129.801 124.353 128.661C124.353 127.73 124.628 126.925 125.179 126.245C125.73 125.565 126.539 125.226 127.607 125.226C128.306 125.226 128.889 125.395 129.357 125.734C129.824 126.073 130.058 126.51 130.058 127.046C130.058 127.308 129.973 127.527 129.804 127.706C129.634 127.883 129.419 127.972 129.157 127.972C128.784 127.972 128.527 127.798 128.385 127.451C128.342 127.349 128.321 127.235 128.321 127.11C128.321 126.814 128.448 126.583 128.7 126.416Z" fill="white"/>
<path d="M132.846 124.045C132.567 124.045 132.33 123.951 132.136 123.765C131.94 123.579 131.842 123.351 131.842 123.079C131.842 122.806 131.941 122.573 132.138 122.382C132.336 122.191 132.572 122.096 132.846 122.096C133.121 122.096 133.356 122.191 133.554 122.382C133.751 122.573 133.849 122.806 133.849 123.079C133.849 123.351 133.752 123.579 133.556 123.765C133.362 123.951 133.124 124.045 132.846 124.045ZM131.206 131.178C131.604 131.178 131.854 131.141 131.955 131.066C132.056 130.99 132.117 130.91 132.138 130.824C132.16 130.739 132.17 130.632 132.17 130.503V126.959C132.17 126.65 132.144 126.448 132.09 126.354C132.036 126.259 131.892 126.212 131.656 126.212H131.193V125.505C131.613 125.505 131.944 125.474 132.183 125.412C132.424 125.349 132.593 125.305 132.692 125.277C132.791 125.248 132.898 125.235 133.013 125.235C133.236 125.235 133.383 125.3 133.454 125.431C133.524 125.562 133.56 125.771 133.56 126.058V130.503C133.56 130.773 133.603 130.943 133.688 131.011C133.834 131.122 134.111 131.178 134.518 131.178V131.886H131.206V131.178Z" fill="white"/>
<path d="M138.87 131.233C139.368 131.233 139.772 131.006 140.083 130.552C140.394 130.098 140.549 129.458 140.549 128.635C140.549 127.31 140.215 126.482 139.546 126.152C139.34 126.049 139.115 125.997 138.87 125.997C138.077 125.997 137.56 126.478 137.32 127.438C137.235 127.768 137.191 128.155 137.191 128.596C137.191 129.445 137.347 130.098 137.658 130.552C137.969 131.006 138.373 131.233 138.87 131.233ZM135.699 128.583C135.699 128.068 135.78 127.594 135.941 127.159C136.101 126.723 136.325 126.362 136.612 126.074C137.178 125.508 137.931 125.226 138.87 125.226C139.818 125.226 140.583 125.51 141.164 126.078C141.745 126.646 142.035 127.453 142.035 128.497C142.035 129.541 141.767 130.386 141.231 131.034C140.695 131.682 139.908 132.006 138.87 132.006C137.833 132.006 137.045 131.692 136.507 131.063C135.968 130.435 135.699 129.609 135.699 128.583Z" fill="white"/>
<path d="M146.849 126.21C146.63 125.991 146.272 125.882 145.775 125.882C145.277 125.882 144.941 126.062 144.765 126.422C144.718 126.525 144.694 126.642 144.694 126.773C144.694 126.904 144.745 127.031 144.848 127.152C144.951 127.275 145.084 127.391 145.247 127.5C145.41 127.61 145.593 127.715 145.797 127.818C146.001 127.921 146.212 128.033 146.431 128.153C146.65 128.273 146.881 128.4 147.125 128.532C148.021 129.021 148.47 129.562 148.47 130.156C148.47 130.75 148.238 131.207 147.775 131.527C147.312 131.846 146.698 132.006 145.932 132.006C145.167 132.006 144.535 131.869 144.038 131.594C143.541 131.32 143.292 130.965 143.292 130.532C143.292 130.297 143.37 130.098 143.526 129.934C143.683 129.771 143.883 129.69 144.125 129.69C144.367 129.69 144.567 129.766 144.726 129.918C144.884 130.071 144.964 130.252 144.964 130.462C144.964 130.672 144.891 130.85 144.745 130.996C145.088 131.193 145.514 131.292 146.022 131.292C146.531 131.292 146.887 131.174 147.093 130.938C147.179 130.844 147.222 130.721 147.222 130.571C147.222 130.215 146.827 129.845 146.039 129.458C145.49 129.188 145.078 128.976 144.803 128.822C143.924 128.324 143.485 127.724 143.485 127.021C143.485 126.48 143.709 126.047 144.157 125.722C144.605 125.395 145.177 125.233 145.871 125.233C146.565 125.233 147.15 125.362 147.624 125.622C148.098 125.881 148.334 126.217 148.334 126.629C148.334 126.868 148.277 127.046 148.161 127.162C147.959 127.364 147.766 127.464 147.582 127.464C147.282 127.464 147.055 127.389 146.903 127.236C146.751 127.084 146.675 126.909 146.675 126.712C146.675 126.515 146.733 126.348 146.849 126.21Z" fill="white"/>
<path d="M152.892 131.233C153.39 131.233 153.793 131.006 154.104 130.552C154.416 130.098 154.571 129.458 154.571 128.635C154.571 127.31 154.236 126.482 153.567 126.152C153.361 126.049 153.137 125.997 152.892 125.997C152.099 125.997 151.582 126.478 151.342 127.438C151.256 127.768 151.213 128.155 151.213 128.596C151.213 129.445 151.368 130.098 151.68 130.552C151.99 131.006 152.394 131.233 152.892 131.233ZM149.721 128.583C149.721 128.068 149.802 127.594 149.962 127.159C150.123 126.723 150.347 126.362 150.634 126.074C151.2 125.508 151.953 125.226 152.892 125.226C153.84 125.226 154.604 125.51 155.185 126.078C155.766 126.646 156.057 127.453 156.057 128.497C156.057 129.541 155.789 130.386 155.253 131.034C154.717 131.682 153.93 132.006 152.892 132.006C151.854 132.006 151.066 131.692 150.528 131.063C149.99 130.435 149.721 129.609 149.721 128.583Z" fill="white"/>
<path d="M41.0775 60.7793C40.0352 63.5019 38.4967 65.6879 36.459 67.3394C34.422 68.9909 32.1477 69.9241 29.6375 70.1372C30.3113 67.3113 30.9615 64.6031 31.585 62.0118C32.2078 59.4212 32.7653 57.0149 33.2593 54.7896C33.7521 52.5663 34.1939 50.5901 34.5827 48.8634C34.9723 47.1361 35.2448 45.7232 35.3997 44.624C36.131 44.2051 37.0191 43.7855 38.0654 43.364C39.1104 42.9437 40.1306 42.7327 41.1246 42.7307C43.3218 42.7268 44.4484 44.177 44.5066 47.0806C44.5628 49.9836 43.4204 54.5504 41.0775 60.7793ZM47.4377 63.0829C49.0545 60.7002 50.3975 58.2788 51.4661 55.8176C52.5339 53.3571 53.3018 50.9887 53.7685 48.7118C54.2357 46.4356 54.3364 44.5129 54.0723 42.9437C53.756 41.2707 53.1907 39.9904 52.3784 39.1016C51.5654 38.2141 50.5969 37.6528 49.4728 37.4195C48.3468 37.1861 47.1305 37.2018 45.8235 37.4652C44.5158 37.7299 43.2355 38.137 41.9807 38.688C40.7259 39.2395 39.5372 39.9087 38.4137 40.6956C37.2897 41.4825 36.363 42.2425 35.6317 42.9758V42.5052C35.6304 41.7203 35.4715 40.9884 35.1565 40.3087C34.8932 39.7343 34.4481 39.1461 33.8201 38.5455C33.1907 37.9462 32.3 37.4371 31.1491 37.0201C29.944 36.6568 28.4663 36.4758 26.7142 36.4784C24.9608 36.4816 23.0133 36.8123 20.8704 37.4698C18.7255 38.1279 16.4257 39.2036 13.9704 40.6989C11.5131 42.1941 8.98002 44.226 6.36916 46.7937C4.3321 48.8373 2.88453 50.7227 2.02383 52.4507C1.16379 54.1786 0.735069 55.7621 0.737683 57.2005C0.740297 58.6402 1.09516 59.9342 1.80359 61.0831C2.51202 62.2334 3.38906 63.2516 4.43798 64.1391C6.89983 66.2271 10.3557 67.9478 14.8049 69.3C13.9122 67.7322 13.3084 66.0068 12.9907 64.124C12.6744 62.5033 12.5927 60.6329 12.7457 58.5135C12.8992 56.3947 13.5743 54.0786 14.7736 51.5651C15.9199 49.1052 17.2106 46.9192 18.647 45.0063C20.0815 43.0947 21.4134 41.6275 22.6414 40.6048C23.8681 39.5826 24.8615 39.0846 25.6209 39.1088C26.3783 39.135 26.6809 39.8525 26.5267 41.2655C24.7615 49.2725 23.0741 56.9927 21.4664 64.4233C20.7913 67.5629 20.0907 70.8083 19.3646 74.157C18.6372 77.507 17.9367 80.7649 17.2629 83.9299C16.5878 87.0976 15.9519 90.1058 15.3559 92.9578C14.7592 95.8111 14.2534 98.3096 13.839 100.454C13.2162 103.28 12.9973 105.635 13.1842 107.518C13.3704 109.401 13.7652 110.93 14.369 112.106C14.9722 113.282 15.7192 114.156 16.61 114.731C17.5001 115.305 18.3503 115.721 19.1627 115.982C19.9737 116.242 20.6933 116.397 21.3213 116.45C21.9493 116.5 22.2885 116.552 22.3421 116.604C21.7637 115.716 21.5781 113.885 21.7833 111.113C21.9866 108.338 22.412 105.017 23.0603 101.145C23.7067 97.2724 24.5236 93.0336 25.5104 88.4282C26.4953 83.8234 27.507 79.2435 28.5467 74.6903L29.6453 74.6883L30.8223 74.6864C32.7052 74.5263 34.4318 74.6014 36.0016 74.9125C37.3616 75.1726 38.6183 75.7065 39.7711 76.515C40.9226 77.3247 41.6311 78.6435 41.8964 80.4741C42.1082 82.3569 42.2421 84.0828 42.2983 85.6526C42.3519 87.2218 42.2506 88.8575 41.9925 90.5574C41.733 92.2579 41.305 94.1165 40.7076 96.1307C40.109 98.1462 39.2888 100.488 38.2477 103.159C37.7269 104.468 37.0877 105.685 36.3316 106.811C35.5748 107.936 34.7919 108.932 33.9828 109.797C33.1724 110.661 32.3503 111.368 31.5151 111.919C30.6779 112.47 29.8943 112.825 29.1624 112.983H29.0839C28.037 112.985 27.1083 112.606 26.296 111.85C25.4836 111.092 24.8151 110.244 24.2909 109.303C23.6616 108.257 23.1355 107.03 22.7146 105.617C22.1944 107.502 22.0408 109.176 22.2526 110.641C22.412 111.896 22.9499 113.033 23.8675 114.052C24.7837 115.07 26.3933 115.577 28.6964 115.573C30.8406 115.569 33.4149 114.545 36.4205 112.5C39.4241 110.454 42.2304 107.415 44.8399 103.382C45.9869 101.654 47.0168 99.5859 47.9285 97.1776C48.8389 94.7707 49.5937 92.284 50.191 89.7189C50.7877 87.1551 51.1635 84.6168 51.3158 82.1053C51.468 79.5944 51.3589 77.3188 50.9896 75.2791C50.7256 74.0766 50.306 73.0709 49.729 72.2598C49.1513 71.4508 48.4579 70.824 47.6468 70.3803C46.8345 69.9378 45.9444 69.6379 44.9772 69.4823C44.008 69.3274 43.0015 69.2778 41.9552 69.3307C43.9923 67.5498 45.8196 65.467 47.4377 63.0829Z" fill="white"/>
<path d="M126.969 57.8105C128.077 57.8086 129.024 57.4217 129.812 56.6486C130.599 55.8741 130.992 54.9344 130.99 53.826C130.988 52.7202 130.592 51.7732 129.802 50.9851C129.011 50.1982 128.062 49.8048 126.956 49.8068C125.848 49.8087 124.91 50.2048 124.138 50.9949C123.368 51.7856 122.984 52.7339 122.986 53.8397C122.988 54.9487 123.375 55.8872 124.149 56.6577C124.923 57.4295 125.862 57.8125 126.969 57.8105Z" fill="white"/>
<path d="M117.709 57.8223C118.816 57.821 119.763 57.4341 120.552 56.6603C121.339 55.8865 121.732 54.9461 121.73 53.8377C121.728 52.7319 121.332 51.7849 120.542 50.9968C119.751 50.2099 118.803 49.8165 117.696 49.8185C116.588 49.8204 115.649 50.2165 114.878 51.0066C114.108 51.7974 113.724 52.7456 113.726 53.8521C113.728 54.9604 114.115 55.8989 114.889 56.6701C115.662 57.4412 116.602 57.8242 117.709 57.8223Z" fill="white"/>
<path d="M162.943 40.4006C162.398 42.2337 161.681 44.2224 160.796 46.3679C159.91 48.5154 158.894 50.7793 157.747 53.1607C156.6 55.5442 155.402 57.9126 154.15 60.2692C152.899 62.6252 151.633 64.9426 150.356 67.2201C149.078 69.4977 147.865 71.6066 146.718 73.543C147.135 72.1301 147.563 70.678 148.006 69.186C148.447 67.6946 148.928 66.1634 149.449 64.5929C151.011 59.9352 152.456 55.9304 153.784 52.5797C155.112 49.2298 156.323 46.3895 157.418 44.059C158.513 41.7298 159.49 39.8705 160.351 38.4824C161.212 37.0956 161.955 36.0082 162.581 35.2226C162.738 35.0651 162.921 34.9606 163.13 34.9076C163.548 34.8024 163.784 35.0632 163.838 35.6906C163.788 36.9989 163.49 38.5694 162.943 40.4006ZM119.324 68.3338C119.271 68.3338 119.245 68.3605 119.245 68.4122V68.569C119.246 68.6749 119.194 68.8317 119.089 69.0402C116.797 74.9037 114.662 80.1123 112.682 84.6668C111.848 86.6045 111.002 88.503 110.141 90.3603C109.281 92.2196 108.461 93.8822 107.678 95.3481C106.896 96.8146 106.205 97.9929 105.605 98.8824C105.005 99.7738 104.521 100.219 104.156 100.219C102.847 99.9071 102.1 98.8889 101.914 97.1623C101.727 95.4363 101.907 93.3568 102.452 90.923C102.997 88.4893 103.843 85.8987 104.989 83.1506C106.135 80.4018 107.386 77.8629 108.742 75.5317C110.098 73.2026 111.468 71.2642 112.852 69.7179C114.235 68.1736 115.477 67.3986 116.575 67.3966C117.411 67.3953 118.079 67.4861 118.577 67.6678C119.074 67.8508 119.453 68.0462 119.716 68.2547C119.61 68.3076 119.48 68.3331 119.324 68.3338ZM165.167 33.0993C163.857 31.9511 162.496 31.1158 161.082 30.595C159.878 30.1793 158.531 30.0245 157.04 30.1316C155.55 30.2395 154.046 31.027 152.533 32.4935C151.957 33.0706 151.162 34.2881 150.145 36.1461C149.128 38.0054 148.021 40.3091 146.823 43.0572C145.624 45.8059 144.386 48.9076 143.111 52.3628C141.835 55.8173 140.613 59.417 139.443 63.1584C138.271 66.9019 137.231 70.6956 136.323 74.5423C135.413 78.389 134.7 82.1174 134.185 85.7281C134.038 86.7509 133.918 87.7521 133.818 88.737C133.053 91.1818 132.214 93.5038 131.299 95.699C130.517 97.6368 129.644 99.5738 128.68 101.51C127.715 103.448 126.789 104.94 125.902 105.988C124.962 107.036 124.191 107.651 123.59 107.836C122.989 108.019 122.504 108.007 122.138 107.799C121.719 107.591 121.404 107.147 121.195 106.467L121.116 106.232C121.113 104.401 121.305 102.295 121.693 99.9137C122.081 97.5328 122.561 95.0743 123.132 92.5353C123.703 89.9976 124.313 87.4717 124.963 84.9596C125.612 82.4474 126.21 80.145 126.756 78.0511C127.301 75.9585 127.73 74.1652 128.041 72.6732C128.353 71.1825 128.455 70.1754 128.349 69.6519C128.086 68.7108 127.627 68.058 126.973 67.6926C126.318 67.3286 125.599 67.1332 124.814 67.1077C124.03 67.0836 123.232 67.1633 122.421 67.3469C121.61 67.5325 120.943 67.7299 120.421 67.9397C120.42 66.9979 119.999 65.9268 119.16 64.7243C118.321 63.5231 117.195 62.6226 115.781 62.0226C114.368 61.4246 112.745 61.322 110.916 61.7174C109.085 62.1135 107.203 63.4636 105.273 65.7687C100.783 71.6883 97.7714 76.9381 96.2369 81.5181C95.3599 84.1335 94.7913 86.5091 94.528 88.6455L94.4848 88.622C93.6516 91.1348 92.7928 93.5176 91.9073 95.7677C91.1773 97.7047 90.3316 99.6424 89.367 101.579C88.4018 103.517 87.4764 105.009 86.5895 106.056C86.0144 106.685 85.4929 107.157 85.0224 107.471C84.5518 107.787 84.1466 107.97 83.8068 108.023C83.4663 108.075 83.1794 108.036 82.9435 107.906C82.7082 107.776 82.5115 107.606 82.3546 107.398C81.9854 105.986 81.6939 104.117 81.4815 101.789C81.2678 99.4621 81.3155 96.5584 81.6233 93.0784C81.9312 89.599 82.5775 85.5177 83.5637 80.8338C84.5485 76.1506 86.0575 70.7727 88.0868 64.7001L89.2579 61.1665L93.8875 61.1586C94.2528 60.9495 94.5404 60.7136 94.7495 60.4509C94.9573 60.1895 95.1135 59.9143 95.2187 59.6261C95.3227 59.3392 95.322 58.9857 95.2168 58.5667L90.116 58.5759C90.6362 57.0577 91.1178 55.5801 91.5603 54.1391C92.0014 52.7007 92.4053 51.4576 92.7706 50.41L93.9411 46.877C93.5196 45.5706 92.8249 44.7603 91.8576 44.4479C90.8884 44.1355 89.8814 44.059 88.8357 44.2178C87.6326 44.4296 86.3261 44.8498 84.9145 45.4798C84.1336 47.4698 83.3251 49.5637 82.4925 51.7622C81.6593 53.9607 80.826 56.2376 79.9941 58.5929L77.4042 58.5975C76.9852 58.8085 76.646 59.0438 76.3853 59.3059C76.1232 59.5686 75.9415 59.8431 75.8376 60.1306C75.7324 60.4188 75.7599 60.7718 75.918 61.19L79.1354 61.1841C77.9374 64.8485 76.8199 68.5782 75.7801 72.3719C74.7397 76.1676 73.8967 79.8692 73.249 83.48C72.7987 85.9941 72.4778 88.4102 72.2798 90.7335C71.6688 92.4915 71.0446 94.1828 70.4068 95.8049C69.6258 97.7426 68.7658 99.6803 67.8273 101.616C66.8895 103.554 65.9759 105.046 65.089 106.094C64.2002 107.036 63.4558 107.613 62.8559 107.824C62.254 108.034 61.7697 108.061 61.4038 107.905C61.0371 107.749 60.7757 107.514 60.6182 107.2C60.4607 106.887 60.3548 106.678 60.3032 106.572C60.2993 104.638 60.5176 102.349 60.9581 99.7058C61.3972 97.0643 61.9416 94.3031 62.5919 91.4243C63.2402 88.5468 63.9414 85.6811 64.6956 82.8278C65.4478 79.9764 66.1242 77.3597 66.7222 74.9775C67.3189 72.5967 67.7992 70.5688 68.1632 68.8932C68.5253 67.2195 68.6547 66.1203 68.5495 65.5968C68.1809 64.342 67.5123 63.5721 66.5451 63.2859C65.5752 63.0003 64.5688 62.9356 63.5232 63.0951C62.2684 63.3068 60.9352 63.727 59.5236 64.357C58.8478 66.9751 58.1466 69.9048 57.4198 73.1496C56.797 75.9239 56.0696 79.1549 55.2397 82.8447C54.4084 86.5339 53.5535 90.525 52.6713 94.8155C51.9975 98.1125 51.8178 100.769 52.1354 102.781C52.453 104.796 53.0183 106.378 53.8313 107.525C54.6436 108.674 55.5867 109.457 56.6598 109.875C57.7322 110.291 58.6622 110.577 59.4471 110.734C59.8653 110.941 60.4411 111.045 61.1737 111.044C62.1154 111.043 63.0565 110.739 63.9976 110.137C64.9381 109.534 65.8393 108.747 66.7006 107.778C67.562 106.809 68.3704 105.696 69.1272 104.439C69.8827 103.182 70.6002 101.9 71.2786 100.59C71.5969 99.9614 71.908 99.3111 72.2151 98.6478C72.3393 99.932 72.536 101.144 72.8111 102.274C73.4163 104.759 74.4397 106.758 75.8821 108.272C77.3231 109.786 79.3255 110.672 81.89 110.93C82.0468 110.981 82.3076 111.008 82.6742 111.007L82.8317 111.007C82.8317 111.007 83.616 110.979 83.616 110.927C84.5048 110.768 85.3929 110.335 86.2817 109.627C87.1692 108.919 88.0175 108.055 88.8272 107.033C89.6363 106.012 90.3931 104.886 91.0969 103.655C91.8014 102.426 92.4661 101.181 93.0915 99.9248C93.7306 98.5942 94.3515 97.1845 94.958 95.7036C95.4802 97.5381 96.3226 99.0085 97.4852 100.113C99.1621 101.706 100.994 102.5 102.983 102.496C104.081 102.494 105.179 102.01 106.276 101.04C107.372 100.07 108.442 98.7994 109.487 97.2283C110.53 95.6566 111.547 93.8894 112.538 91.9256C113.527 89.9623 114.465 87.9867 115.352 85.9967C114.781 88.6657 114.158 91.57 113.484 94.7102C112.809 98.0067 112.631 100.663 112.948 102.676C113.266 104.69 113.844 106.271 114.683 107.42C115.521 108.568 116.478 109.351 117.551 109.769C118.624 110.186 119.554 110.471 120.338 110.628C120.757 110.835 121.333 110.939 122.066 110.938C123.008 110.937 123.949 110.633 124.889 110.031C125.829 109.428 126.731 108.641 127.592 107.672C128.453 106.703 129.262 105.59 130.019 104.333C130.774 103.076 131.492 101.794 132.17 100.484C132.649 99.5385 133.114 98.5478 133.569 97.5237C133.725 99.9594 134.121 102.112 134.765 103.971C135.554 106.246 136.786 108.01 138.463 109.262C140.139 110.515 142.337 111.06 145.057 110.898C145.057 110.898 146.743 110.228 147.605 109.521C148.467 108.813 149.302 107.948 150.111 106.927C150.92 105.905 151.69 104.779 152.42 103.548C153.15 102.319 153.829 101.074 154.454 99.8176C155.913 96.8858 157.268 93.5875 158.518 89.9231L155.926 88.5154C155.146 91.0276 154.286 93.4104 153.348 95.6605C152.567 97.5982 151.694 99.5353 150.73 101.472C149.764 103.41 148.839 104.902 147.952 105.95C147.377 106.578 146.867 107.05 146.424 107.365C145.98 107.68 145.574 107.863 145.209 107.916C144.843 107.968 144.542 107.93 144.306 107.8C144.071 107.669 143.874 107.499 143.717 107.291C143.453 106.141 143.215 104.664 143.003 102.858C142.791 101.054 142.734 98.8961 142.835 96.3852C142.934 93.8737 143.218 90.9832 143.683 87.7129C144.148 84.4433 144.899 80.7149 145.939 76.5264C149.122 72.0752 151.835 68.0554 154.079 64.4675C156.322 60.8809 158.187 57.6466 159.673 54.7665C161.159 51.8877 162.331 49.3605 163.19 47.1881C164.05 45.0164 164.687 43.1186 165.103 41.4952C166.039 37.727 166.059 34.9292 165.167 33.0993Z" fill="white"/>
<path d="M65.6167 58.4893C65.4441 58.3148 65.186 57.8932 64.8409 57.2221C64.4959 56.5522 64.1201 55.7529 63.7149 54.8256C63.3084 53.8989 62.9104 52.9225 62.5196 51.8991C62.1275 50.875 61.851 49.9175 61.687 49.0268C61.5236 48.1367 61.4909 47.3636 61.589 46.71C61.687 46.0558 61.9955 45.6448 62.5163 45.4748C63.2443 45.2383 63.8293 45.3004 64.2704 45.6637C64.7102 46.0264 65.0625 46.4872 65.3258 47.0466C65.5879 47.606 65.7526 48.1628 65.818 48.717C65.8833 49.2719 65.9291 49.6248 65.9565 49.777C65.963 49.73 66.1231 49.481 66.4388 49.0327C66.7532 48.5857 67.144 48.1243 67.6119 47.6491C68.0785 47.1747 68.6033 46.8074 69.1876 46.5486C69.7705 46.2898 70.3352 46.3244 70.8795 46.6532C71.5553 47.1015 71.6612 47.9583 71.1998 49.2261C70.7371 50.4933 70.0822 51.8063 69.2366 53.1649C68.2563 54.7517 67.0492 56.5261 65.6167 58.4893Z" fill="white"/>
</g>
<defs>
<clipPath id="clip0_149_13896">
<rect width="172.525" height="173" fill="white" transform="translate(0.737671)"/>
</clipPath>
</defs>
</svg>
