<?xml version="1.0" standalone="no"?>
<!DOCTYPE svg PUBLIC "-//W3C//DTD SVG 20010904//EN"
 "http://www.w3.org/TR/2001/REC-SVG-20010904/DTD/svg10.dtd">
<svg version="1.0" xmlns="http://www.w3.org/2000/svg"
 width="512.000000pt" height="512.000000pt" viewBox="0 0 512.000000 512.000000"
 preserveAspectRatio="xMidYMid meet">

<g transform="translate(0.000000,512.000000) scale(0.100000,-0.100000)"
fill="#000000" stroke="none">
<path d="M850 4785 c-146 -24 -285 -72 -404 -139 -108 -61 -126 -93 -126 -225
0 -583 491 -1180 1141 -1386 163 -52 254 -66 441 -72 267 -8 435 25 646 129
144 71 186 126 168 223 -20 107 -291 339 -554 473 -191 98 -494 212 -563 212
-136 0 -209 -167 -116 -265 27 -29 58 -43 200 -89 232 -76 445 -183 587 -295
l25 -20 -30 -11 c-113 -43 -360 -56 -525 -26 -185 33 -374 110 -544 223 -123
81 -300 254 -376 367 -95 142 -160 307 -176 445 l-6 57 58 26 c181 78 440 93
666 39 170 -40 325 -109 497 -220 85 -55 100 -61 146 -61 96 0 160 70 152 166
-5 68 -29 100 -131 168 -202 136 -451 237 -680 276 -137 23 -374 26 -496 5z"/>
<path d="M3850 3579 c-119 -14 -276 -48 -390 -86 -134 -45 -315 -130 -361
-171 -68 -60 -74 -166 -12 -224 73 -68 126 -66 273 8 121 60 266 111 400 140
67 15 127 19 285 19 210 0 246 -6 382 -57 l55 -20 -6 -58 c-44 -388 -390 -787
-833 -960 -196 -77 -397 -108 -576 -90 -106 11 -215 34 -230 49 -13 13 202
152 318 208 55 26 181 74 279 108 165 55 182 63 210 99 27 33 31 46 31 96 0
62 -16 95 -66 133 -61 45 -153 28 -409 -75 -264 -106 -484 -237 -630 -375
-147 -138 -181 -195 -166 -278 11 -56 56 -97 168 -153 211 -104 379 -137 646
-129 286 9 511 72 766 214 488 274 816 774 816 1245 0 142 -24 176 -175 248
-208 99 -499 140 -775 109z"/>
<path d="M1855 2546 c-41 -18 -83 -69 -90 -109 -3 -18 -5 -351 -3 -742 3 -624
6 -717 20 -765 65 -219 173 -368 345 -480 136 -89 259 -125 433 -125 174 0
297 36 433 125 174 113 286 270 345 485 12 45 17 103 17 232 0 188 -3 198 -69
247 -39 29 -133 29 -172 0 -64 -47 -68 -61 -75 -237 -5 -130 -10 -172 -26
-214 -33 -83 -67 -134 -125 -190 -187 -176 -469 -176 -656 0 -58 55 -91 105
-125 190 -22 51 -22 64 -27 774 -5 709 -5 722 -26 749 -11 15 -32 37 -46 47
-33 25 -113 32 -153 13z"/>
<path d="M2495 1586 c-41 -18 -83 -69 -90 -109 -4 -18 -5 -118 -3 -224 3 -210
5 -218 72 -267 39 -29 133 -29 172 0 68 51 69 53 69 294 0 205 -1 220 -21 246
-11 15 -32 37 -46 47 -33 25 -113 32 -153 13z"/>
</g>
</svg>
