<svg width="400" height="137" viewBox="0 0 400 137" fill="none" xmlns="http://www.w3.org/2000/svg">
<g clip-path="url(#clip0_358_2041)">
<path d="M332.011 21.6517C336.494 21.6517 340.127 17.9596 340.127 13.4051C340.127 8.85067 336.494 5.15857 332.011 5.15857C327.529 5.15857 323.895 8.85067 323.895 13.4051C323.895 17.9596 327.529 21.6517 332.011 21.6517Z" fill="#A61917"/>
<path d="M357.57 21.6517C362.053 21.6517 365.686 17.9596 365.686 13.4051C365.686 8.85067 362.053 5.15857 357.57 5.15857C353.088 5.15857 349.454 8.85067 349.454 13.4051C349.454 17.9596 353.088 21.6517 357.57 21.6517Z" fill="#A61917"/>
<path d="M25.1091 84.8546L25.1213 115.028C25.1213 115.288 24.9935 115.418 24.738 115.418L12.0832 115.424C11.9557 115.424 11.8335 115.372 11.7434 115.281C11.6532 115.189 11.6026 115.065 11.6026 114.935L11.6087 31.5179C11.6087 31.2377 11.7445 31.0976 12.0163 31.0976H24.811C24.8965 31.0976 24.9785 31.1327 25.039 31.1953C25.0995 31.258 25.1334 31.3429 25.1334 31.4314L25.0969 37.1125C25.0969 37.4051 25.2004 37.4484 25.4072 37.2423C30.0189 32.6739 35.0504 30.2136 41.8706 29.9725C47.9911 29.7623 53.5519 31.2212 58.4982 34.8561C68.8471 42.4721 72.6252 54.6317 70.6175 67.3106C69.1391 76.6575 63.1828 85.1452 54.7261 89.2684C47.8572 92.6128 39.3092 92.9157 32.2031 89.6084C29.8506 88.5163 27.6056 86.8823 25.4681 84.7063C25.2287 84.4631 25.1091 84.5126 25.1091 84.8546ZM42.3329 42.9914C29.8485 42.1136 23.1926 52.0786 24.4824 63.8179C25.6871 74.8215 35.5736 81.3743 45.9651 78.1103C62.6231 72.8805 60.5241 44.2587 42.3329 42.9914Z" fill="#A61917"/>
<path d="M136.684 37.2546L136.702 31.4807C136.702 31.2252 136.828 31.0975 137.079 31.0975H149.959C150.038 31.0975 150.114 31.1294 150.17 31.1862C150.226 31.243 150.257 31.32 150.257 31.4004V90.3069C150.257 90.3993 150.221 90.488 150.156 90.5539C150.091 90.6198 150.003 90.6576 149.91 90.6593L137.055 90.684C136.812 90.684 136.69 90.5583 136.69 90.3069L136.696 84.7309C136.7 84.4671 136.613 84.4342 136.434 84.632C132.437 89.1015 126.511 91.5804 120.64 91.8771C112.877 92.2645 106.199 89.8845 100.606 84.7371C85.3226 70.6858 88.0117 42.7316 106.562 32.884C111.782 30.1146 117.679 29.3006 124.254 30.4422C128.894 31.25 132.979 33.5434 136.507 37.3226C136.625 37.4462 136.684 37.4235 136.684 37.2546ZM121.032 79.0865C123.222 79.102 125.392 78.6468 127.421 77.7469C129.45 76.847 131.297 75.52 132.856 73.8416C134.416 72.1632 135.658 70.1664 136.51 67.9651C137.363 65.7638 137.811 63.4012 137.827 61.0121C137.86 56.1871 136.136 51.5473 133.033 48.1133C129.93 44.6793 125.704 42.7325 121.282 42.7012C119.093 42.6856 116.922 43.1408 114.894 44.0407C112.865 44.9407 111.018 46.2677 109.459 47.9461C107.899 49.6244 106.657 51.6213 105.804 53.8225C104.951 56.0238 104.504 58.3865 104.488 60.7756C104.454 65.6005 106.179 70.2404 109.282 73.6743C112.384 77.1083 116.611 79.0551 121.032 79.0865Z" fill="#A61917"/>
<path d="M328.61 66.4636C330.399 72.4559 334.015 76.3319 339.458 78.0916C346.485 80.3603 355.197 78.5429 360.125 72.8742C360.154 72.8412 360.189 72.8145 360.228 72.7959C360.268 72.7773 360.31 72.7671 360.354 72.7659C360.397 72.7648 360.44 72.7727 360.48 72.7892C360.521 72.8057 360.557 72.8304 360.587 72.8618L368.758 81.3247C368.827 81.3973 368.867 81.4935 368.869 81.5943C368.871 81.6951 368.836 81.793 368.77 81.8687C357.941 94.1829 337.584 95.3327 325.331 84.7247C319.969 80.0842 316.622 74.3928 315.292 67.6505C312.834 55.1695 317.032 42.9913 327.332 35.4557C332.954 31.3427 339.581 29.5314 347.215 30.0219C365.059 31.1779 375.706 48.3077 372.22 65.4745C372.189 65.6248 372.109 65.7598 371.993 65.8566C371.876 65.9535 371.731 66.0063 371.581 66.0062L328.951 66C328.634 66 328.521 66.1545 328.61 66.4636ZM329.316 52.4804C329.028 53.1645 328.809 53.828 328.659 54.4709C328.598 54.7347 328.701 54.8666 328.969 54.8666L359.109 54.8604C359.158 54.8607 359.206 54.8497 359.25 54.8282C359.295 54.8067 359.334 54.7753 359.365 54.7362C359.395 54.6971 359.417 54.6513 359.429 54.6022C359.441 54.5531 359.441 54.5019 359.432 54.4524C358.026 47.8316 353.609 43.2942 346.905 42.6822C339.087 41.9651 332.565 44.8211 329.316 52.4804Z" fill="#A61917"/>
<path d="M204.362 78.3081C211.061 76.9543 213.184 71.3227 213.196 64.9554C213.217 53.8034 213.227 42.6452 213.227 31.4809C213.227 31.3809 213.266 31.285 213.336 31.2142C213.405 31.1435 213.5 31.1038 213.598 31.1038L226.149 31.0976C226.232 31.0976 226.314 31.1141 226.391 31.1462C226.467 31.1783 226.536 31.2253 226.595 31.2845C226.653 31.3437 226.699 31.4139 226.73 31.4912C226.761 31.5684 226.777 31.651 226.776 31.7343C226.711 43.4097 226.721 53.9889 226.806 63.4718C226.843 67.626 226.508 71.026 225.803 73.6718C224.277 79.392 221.26 83.8986 216.749 87.1914C207.112 94.2325 191.799 93.5154 183.123 84.867C177.319 79.0685 175.707 72.3736 175.762 63.8798C175.835 52.0684 175.843 41.2914 175.786 31.5489C175.785 31.4891 175.796 31.4298 175.818 31.3743C175.841 31.3188 175.874 31.2684 175.916 31.2258C175.957 31.1833 176.007 31.1495 176.062 31.1264C176.117 31.1033 176.176 31.0914 176.236 31.0914L188.879 31.1038C188.956 31.1038 189.03 31.1351 189.085 31.1907C189.14 31.2463 189.171 31.3218 189.171 31.4005C189.183 41.9055 189.187 53.0781 189.183 64.9183C189.177 74.3641 194.987 80.2121 204.362 78.3081Z" fill="#A61917"/>
<path d="M250.096 43.4179L250.139 31.3077C250.139 31.252 250.161 31.1985 250.199 31.1591C250.238 31.1197 250.291 31.0975 250.346 31.0975H296.176C296.231 31.0975 296.284 31.1197 296.323 31.1591C296.362 31.1985 296.383 31.252 296.383 31.3077L296.389 38.6332C296.389 38.6779 296.374 38.7213 296.347 38.7568L267.734 77.8074C267.711 77.8385 267.698 77.8753 267.695 77.9137C267.692 77.9521 267.699 77.9906 267.716 78.025C267.733 78.0595 267.759 78.0886 267.791 78.109C267.823 78.1295 267.86 78.1406 267.898 78.1412L295.483 78.1041C295.538 78.1041 295.59 78.1263 295.629 78.1657C295.668 78.2051 295.69 78.2586 295.69 78.3143L295.672 90.4801C295.672 90.5077 295.666 90.5351 295.656 90.5606C295.645 90.5861 295.63 90.6092 295.611 90.6287C295.592 90.6483 295.569 90.6637 295.544 90.6743C295.519 90.6849 295.492 90.6903 295.465 90.6903L248.113 90.6718C248.058 90.6718 248.005 90.6496 247.967 90.6102C247.928 90.5708 247.906 90.5173 247.906 90.4616L247.924 83.1794C247.925 83.1346 247.94 83.0913 247.967 83.0558L276.598 43.9681C276.621 43.9365 276.634 43.8992 276.637 43.8603C276.64 43.8213 276.632 43.7823 276.615 43.7477C276.597 43.713 276.57 43.6841 276.537 43.664C276.504 43.644 276.466 43.6337 276.428 43.6343L250.303 43.6281C250.248 43.6281 250.196 43.6059 250.157 43.5665C250.118 43.5271 250.096 43.4737 250.096 43.4179Z" fill="#A61917"/>
<path d="M137.992 114.886C138.029 114.923 138.058 114.967 138.078 115.016C138.098 115.065 138.108 115.117 138.108 115.17C138.108 115.223 138.098 115.275 138.078 115.324C138.058 115.373 138.029 115.417 137.992 115.455L137.937 115.504C137.598 115.845 137.246 116.167 136.902 116.452C136.558 116.736 136.229 116.977 135.932 117.16C135.636 117.344 135.379 117.467 135.176 117.522C134.973 117.578 134.828 117.564 134.749 117.482L134.664 117.396C134.508 117.228 134.629 116.796 135 116.194C135.372 115.591 135.964 114.868 136.647 114.181L136.696 114.125C136.733 114.089 136.777 114.059 136.825 114.04C136.873 114.02 136.925 114.01 136.977 114.011C137.029 114.011 137.08 114.022 137.128 114.043C137.176 114.064 137.219 114.094 137.256 114.132L137.992 114.886Z" fill="#A61917"/>
<path d="M122.423 118.836C122.228 115.535 124.309 113.254 127.698 114.725C127.787 114.764 127.868 114.821 127.935 114.892C128.003 114.963 128.055 115.047 128.09 115.14C128.125 115.232 128.141 115.33 128.137 115.429C128.133 115.528 128.11 115.625 128.069 115.714C127.943 115.978 127.752 116.172 127.497 116.295C127.391 116.345 127.276 116.369 127.159 116.365C127.043 116.36 126.929 116.328 126.828 116.271C126.045 115.834 125.321 115.861 124.656 116.351C124.457 116.491 124.347 116.683 124.327 116.926L124.163 118.743C124.135 119.028 124.26 119.17 124.54 119.17L126.426 119.157C126.88 119.157 127.124 119.386 127.156 119.844L127.181 120.128C127.186 120.224 127.173 120.321 127.14 120.412C127.108 120.502 127.058 120.585 126.993 120.655C126.927 120.725 126.849 120.78 126.762 120.817C126.675 120.854 126.581 120.872 126.487 120.87L124.564 120.833C124.349 120.829 124.24 120.938 124.236 121.16L124.224 128.016C124.224 128.337 124.066 128.5 123.749 128.504H122.897C122.565 128.504 122.399 128.335 122.399 127.997L122.417 121.241C122.417 120.973 122.285 120.841 122.021 120.845L120.677 120.87C120.32 120.874 120.149 120.695 120.166 120.332L120.202 119.504C120.21 119.269 120.332 119.153 120.567 119.157L122.1 119.182C122.145 119.183 122.188 119.175 122.229 119.157C122.27 119.14 122.307 119.114 122.337 119.082C122.368 119.049 122.391 119.01 122.406 118.968C122.42 118.926 122.426 118.881 122.423 118.836Z" fill="#A61917"/>
<path d="M258.133 119.936L258.084 115.059C258.08 114.68 258.265 114.474 258.638 114.441L259.137 114.404C259.542 114.371 259.747 114.562 259.751 114.979L259.788 127.812C259.788 128.455 259.483 128.688 258.875 128.511C258.538 128.416 258.289 128.21 258.127 127.892C258.025 127.699 257.883 127.657 257.701 127.769C255.636 128.984 253.805 128.931 252.207 127.608C250.084 125.852 249.98 122.156 251.964 120.233C253.687 118.56 255.673 118.498 257.92 120.048C258.062 120.147 258.133 120.109 258.133 119.936ZM255.382 126.951C255.765 126.937 256.142 126.842 256.49 126.671C256.839 126.5 257.153 126.257 257.414 125.955C257.675 125.653 257.878 125.298 258.011 124.91C258.145 124.523 258.206 124.11 258.192 123.696C258.178 123.283 258.088 122.876 257.928 122.499C257.768 122.122 257.542 121.782 257.26 121.499C256.979 121.216 256.65 120.995 256.29 120.849C255.931 120.704 255.548 120.636 255.165 120.649C254.782 120.663 254.405 120.758 254.056 120.929C253.708 121.1 253.394 121.343 253.133 121.645C252.872 121.947 252.669 122.302 252.535 122.69C252.402 123.077 252.341 123.49 252.355 123.904C252.369 124.317 252.459 124.724 252.618 125.101C252.778 125.479 253.005 125.818 253.286 126.101C253.567 126.384 253.897 126.605 254.256 126.751C254.616 126.896 254.998 126.964 255.382 126.951Z" fill="#A61917"/>
<path d="M155.818 120.579C154.455 117.967 155.025 116.087 157.528 114.942C159.037 114.245 160.527 114.628 162 116.091C162.304 116.392 162.31 116.699 162.018 117.012L161.78 117.272C161.484 117.598 161.176 117.61 160.856 117.309C158.136 114.793 155.344 117.798 158.142 120.722C160.45 123.145 162.677 125.622 164.823 128.152C164.924 128.272 164.9 128.354 164.749 128.399C163.667 128.725 162.792 128.463 162.127 127.614C161.945 127.379 161.74 127.359 161.513 127.552C160.12 128.752 157.795 128.919 156.256 128.27C153.166 126.959 153.007 123.027 155.696 121.099C155.883 120.963 155.924 120.79 155.818 120.579ZM160.405 125.618L157.12 122.119C157.06 122.055 156.978 122.018 156.891 122.016C156.805 122.013 156.721 122.046 156.658 122.106L156.579 122.18C156.3 122.449 156.073 122.767 155.909 123.115C155.746 123.463 155.65 123.835 155.626 124.21C155.602 124.585 155.651 124.955 155.771 125.3C155.891 125.644 156.078 125.956 156.323 126.217L156.335 126.223C156.58 126.485 156.877 126.691 157.209 126.829C157.541 126.968 157.902 127.037 158.272 127.032C158.641 127.027 159.012 126.948 159.362 126.799C159.713 126.651 160.036 126.436 160.314 126.168L160.393 126.087C160.456 126.027 160.492 125.943 160.495 125.855C160.497 125.767 160.465 125.682 160.405 125.618Z" fill="#A61917"/>
<path d="M267.076 117.278C267.658 117.278 268.129 116.799 268.129 116.209C268.129 115.618 267.658 115.139 267.076 115.139C266.495 115.139 266.024 115.618 266.024 116.209C266.024 116.799 266.495 117.278 267.076 117.278Z" fill="#A61917"/>
<path d="M275.186 120.851L273.665 120.783C273.577 120.78 273.492 120.743 273.43 120.678C273.368 120.614 273.332 120.528 273.331 120.437L273.313 119.541C273.311 119.493 273.319 119.445 273.336 119.401C273.353 119.356 273.379 119.316 273.412 119.281C273.445 119.247 273.484 119.22 273.528 119.202C273.572 119.184 273.618 119.175 273.665 119.176L275.174 119.195C275.264 119.195 275.351 119.159 275.415 119.096C275.48 119.033 275.518 118.946 275.521 118.855L275.631 115.702C275.633 115.654 275.645 115.607 275.665 115.564C275.686 115.521 275.715 115.482 275.751 115.451C275.787 115.42 275.829 115.396 275.874 115.382C275.919 115.368 275.967 115.363 276.014 115.368L277.012 115.479C277.094 115.488 277.171 115.527 277.228 115.588C277.285 115.649 277.318 115.729 277.322 115.813L277.419 118.855C277.422 118.945 277.459 119.031 277.523 119.094C277.586 119.157 277.671 119.193 277.76 119.195L279.36 119.226C279.406 119.226 279.45 119.236 279.492 119.255C279.534 119.273 279.572 119.3 279.603 119.333C279.635 119.367 279.66 119.406 279.677 119.449C279.693 119.492 279.702 119.538 279.701 119.584L279.676 120.406C279.674 120.494 279.639 120.577 279.579 120.639C279.52 120.702 279.44 120.74 279.354 120.746L277.76 120.858C277.673 120.864 277.592 120.903 277.532 120.967C277.473 121.031 277.439 121.116 277.437 121.204L277.377 128.14C277.376 128.187 277.366 128.233 277.347 128.276C277.329 128.319 277.302 128.357 277.269 128.389C277.235 128.422 277.196 128.447 277.153 128.463C277.11 128.48 277.064 128.488 277.018 128.486L275.916 128.437C275.828 128.433 275.743 128.396 275.681 128.331C275.619 128.267 275.583 128.181 275.582 128.09L275.521 121.198C275.519 121.107 275.484 121.021 275.422 120.957C275.359 120.892 275.275 120.855 275.186 120.851Z" fill="#A61917"/>
<path d="M95.2152 125.92C96.3062 127.017 97.665 127.13 99.2915 126.26C99.9546 125.908 100.6 126.421 100.666 127.07C100.676 127.164 100.66 127.26 100.622 127.346C100.583 127.433 100.523 127.508 100.447 127.565C95.4646 131.311 89.6787 124.61 93.9862 120.344C95.2963 119.042 96.8112 118.624 98.531 119.09C98.9325 119.201 99.3037 119.378 99.6444 119.621C100.46 120.206 100.762 120.66 100.551 120.981C100.218 121.484 99.7863 121.597 99.255 121.321C97.7542 120.538 96.4908 120.563 95.4646 121.395C94.187 122.434 94.047 124.746 95.2152 125.92Z" fill="#A61917"/>
<path d="M134.104 124.474C133.342 124.478 133.2 124.781 133.678 125.383L134.086 125.89C134.626 126.574 135.327 126.912 136.191 126.903C137.027 126.895 137.799 126.683 138.509 126.267C139.109 125.908 139.554 126.05 139.842 126.693C139.91 126.85 139.91 127.002 139.842 127.151C139.618 127.633 139.235 127.975 138.692 128.177C135.982 129.182 133.867 128.591 132.346 126.403C129.097 121.729 136.003 115.999 139.629 120.45C140.444 121.447 140.778 122.65 140.632 124.06C140.62 124.169 140.57 124.27 140.49 124.343C140.41 124.416 140.307 124.456 140.2 124.455L134.104 124.474ZM133.532 123.046L138.826 123.009C138.85 123.009 138.873 122.999 138.89 122.982C138.907 122.964 138.917 122.941 138.917 122.916V122.86C138.913 122.284 138.63 121.732 138.13 121.328C137.631 120.923 136.955 120.699 136.252 120.703H136.082C135.733 120.705 135.388 120.764 135.067 120.875C134.745 120.987 134.454 121.149 134.209 121.353C133.963 121.557 133.769 121.798 133.638 122.063C133.506 122.328 133.439 122.612 133.441 122.898V122.953C133.441 122.978 133.451 123.001 133.468 123.019C133.485 123.036 133.508 123.046 133.532 123.046Z" fill="#A61917"/>
<path d="M199.185 124.95C200.219 127.225 202.342 127.243 204.326 126.223C204.731 126.017 205.074 126.098 205.354 126.465C205.601 126.794 205.522 127.206 205.117 127.701C205.04 127.791 204.947 127.864 204.843 127.917C202.401 129.133 200.331 128.89 198.631 127.188C195.364 123.911 198.224 118.335 202.689 118.966C204.251 119.189 205.313 120.048 205.877 121.544C205.987 121.836 206.096 122.129 206.206 122.422C206.733 123.827 206.254 124.523 204.77 124.511L199.501 124.455C199.14 124.451 199.035 124.616 199.185 124.95ZM199.24 123.04L204.508 123.003C204.534 123.003 204.559 122.992 204.577 122.974C204.595 122.955 204.606 122.93 204.606 122.904V122.854C204.602 122.284 204.32 121.739 203.823 121.339C203.326 120.939 202.653 120.717 201.953 120.722H201.771C201.424 120.724 201.08 120.782 200.76 120.892C200.441 121.002 200.15 121.163 199.906 121.364C199.662 121.566 199.469 121.804 199.338 122.066C199.207 122.328 199.14 122.609 199.142 122.891V122.941C199.142 122.967 199.153 122.992 199.171 123.011C199.189 123.029 199.214 123.04 199.24 123.04Z" fill="#A61917"/>
<path d="M214.444 119.504C215.705 118.778 216.926 118.764 218.106 119.46C218.236 119.539 218.337 119.658 218.392 119.801C218.447 119.943 218.454 120.1 218.41 120.246C218.285 120.678 218.005 120.905 217.571 120.926C216.689 120.963 215.885 120.462 215.015 120.882C214.31 121.228 213.943 121.838 213.914 122.712C213.853 124.464 213.833 126.225 213.853 127.998C213.857 128.327 213.697 128.486 213.373 128.474L212.454 128.449C212.182 128.441 212.046 128.298 212.046 128.022C212.038 125.356 212.026 122.595 212.01 119.739C212.01 119.409 212.158 119.197 212.454 119.102C212.864 118.974 213.233 119.071 213.561 119.392C213.678 119.505 213.827 119.577 213.986 119.597C214.144 119.617 214.305 119.584 214.444 119.504Z" fill="#A61917"/>
<path d="M229.392 121.346C226.575 119.714 223.6 121.581 224.598 124.937C225.218 127.021 227.664 127.317 229.337 126.285C229.735 126.042 230.086 126.098 230.39 126.452L230.493 126.576C230.85 126.992 230.8 127.35 230.341 127.651C224.056 131.793 219.098 122.069 225.498 119.331C227.279 118.568 228.934 118.842 230.463 120.153C230.583 120.255 230.658 120.402 230.672 120.561C230.687 120.72 230.64 120.88 230.542 121.006L230.426 121.148C230.134 121.511 229.79 121.577 229.392 121.346Z" fill="#A61917"/>
<path d="M293.834 123.794C293.834 125.086 293.329 126.325 292.43 127.238C291.531 128.152 290.311 128.665 289.04 128.665C287.768 128.665 286.549 128.152 285.65 127.238C284.751 126.325 284.246 125.086 284.246 123.794C284.246 122.502 284.751 121.263 285.65 120.349C286.549 119.436 287.768 118.923 289.04 118.923C290.311 118.923 291.531 119.436 292.43 120.349C293.329 121.263 293.834 122.502 293.834 123.794ZM289.23 126.872C289.619 126.847 289.998 126.741 290.347 126.563C290.696 126.384 291.007 126.135 291.264 125.83C291.52 125.525 291.716 125.169 291.841 124.785C291.965 124.4 292.016 123.993 291.99 123.587C291.938 122.768 291.577 122.002 290.985 121.459C290.394 120.916 289.621 120.639 288.837 120.691C288.449 120.716 288.069 120.822 287.721 121C287.372 121.179 287.06 121.428 286.804 121.733C286.548 122.039 286.352 122.394 286.227 122.778C286.102 123.163 286.051 123.57 286.077 123.976C286.129 124.795 286.491 125.561 287.082 126.104C287.673 126.647 288.446 126.924 289.23 126.872Z" fill="#A61917"/>
<path d="M113.029 119.701C113.033 119.603 113.062 119.512 113.114 119.429C113.187 119.31 113.289 119.225 113.419 119.176C113.735 119.048 114.045 119.038 114.349 119.145C114.568 119.223 114.678 119.38 114.678 119.615L114.672 127.985C114.672 128.216 114.566 128.372 114.355 128.455C113.715 128.715 113.264 128.519 113.005 127.868C112.912 127.645 112.763 127.596 112.561 127.719C110.111 129.219 108.071 128.929 106.44 126.848C103.24 122.761 108.01 116.493 112.561 119.924C112.853 120.142 113.009 120.068 113.029 119.701ZM110.42 126.905C111.198 126.838 111.918 126.447 112.42 125.818C112.922 125.189 113.166 124.373 113.098 123.55C113.03 122.726 112.655 121.963 112.057 121.428C111.459 120.892 110.685 120.629 109.907 120.695C109.129 120.762 108.409 121.152 107.907 121.782C107.405 122.411 107.161 123.227 107.229 124.05C107.297 124.874 107.672 125.637 108.27 126.172C108.869 126.708 109.642 126.971 110.42 126.905Z" fill="#A61917"/>
<path d="M185.094 120.289C187.607 117.575 191.732 119.015 191.543 123.058C191.47 124.709 191.495 126.403 191.531 128.047C191.539 128.319 191.412 128.455 191.148 128.455L190.26 128.461C189.943 128.465 189.785 128.307 189.785 127.985L189.773 122.935C189.773 121.488 189.061 120.74 187.637 120.691C187.382 120.682 187.132 120.719 186.889 120.802C185.895 121.132 185.396 121.828 185.392 122.891L185.38 127.991C185.38 128.305 185.226 128.459 184.918 128.455L184.151 128.449C183.827 128.449 183.663 128.284 183.658 127.954L183.592 122.78C183.571 121.272 182.819 120.577 181.334 120.697L180.89 120.734C179.759 120.829 179.193 121.453 179.193 122.607L179.181 127.973C179.181 128.294 179.02 128.455 178.7 128.455H177.903C177.57 128.455 177.404 128.286 177.404 127.948L177.349 119.615C177.349 119.509 177.382 119.407 177.442 119.322C177.502 119.238 177.587 119.176 177.684 119.145C178.195 118.98 178.643 119.094 179.029 119.485C179.106 119.564 179.205 119.617 179.313 119.638C179.421 119.659 179.534 119.647 179.637 119.603C181.401 118.83 183.306 118.478 184.571 120.252C184.729 120.478 184.904 120.491 185.094 120.289Z" fill="#A61917"/>
<path d="M243.057 119.837C243.146 119.368 243.432 119.091 243.915 119.009C244.009 118.993 244.106 118.998 244.199 119.024C244.292 119.049 244.378 119.095 244.451 119.158C244.525 119.221 244.584 119.3 244.625 119.388C244.665 119.477 244.687 119.573 244.687 119.671L244.657 128.115C244.656 128.185 244.641 128.254 244.613 128.317C244.585 128.381 244.545 128.438 244.494 128.485C244.443 128.532 244.383 128.568 244.318 128.591C244.253 128.613 244.184 128.622 244.115 128.616C243.568 128.566 243.207 128.311 243.032 127.849C242.951 127.631 242.809 127.581 242.607 127.701C240.047 129.263 237.958 128.929 236.34 126.699C233.322 122.533 238.098 116.573 242.661 119.998C242.876 120.155 243.008 120.101 243.057 119.837ZM240.335 126.93C240.721 126.91 241.098 126.81 241.447 126.634C241.795 126.458 242.107 126.21 242.365 125.905C242.623 125.599 242.822 125.243 242.95 124.854C243.079 124.466 243.134 124.055 243.114 123.643C243.072 122.811 242.723 122.029 242.144 121.469C241.564 120.909 240.801 120.617 240.023 120.657C239.637 120.677 239.26 120.778 238.911 120.954C238.563 121.13 238.251 121.378 237.993 121.683C237.735 121.988 237.536 122.345 237.408 122.733C237.279 123.121 237.224 123.533 237.244 123.945C237.286 124.777 237.635 125.558 238.214 126.118C238.794 126.678 239.557 126.97 240.335 126.93Z" fill="#A61917"/>
<path d="M267.604 119.144L266.509 119.146C266.304 119.146 266.138 119.316 266.138 119.524L266.153 128.092C266.153 128.3 266.32 128.469 266.525 128.468L267.62 128.466C267.825 128.466 267.991 128.297 267.99 128.089L267.976 119.521C267.975 119.312 267.809 119.144 267.604 119.144Z" fill="#A61917"/>
<path d="M79.8247 123.804C80.8045 123.594 81.4589 122.75 81.2864 121.918C81.1138 121.086 80.1797 120.582 79.1999 120.792C78.2201 121.001 77.5657 121.846 77.7382 122.678C77.9107 123.51 78.8449 124.014 79.8247 123.804Z" fill="#A61917"/>
<path d="M305.417 123.821C306.376 123.612 307.01 122.761 306.832 121.92C306.655 121.078 305.733 120.566 304.774 120.775C303.815 120.984 303.181 121.835 303.358 122.676C303.536 123.518 304.457 124.03 305.417 123.821Z" fill="#A61917"/>
</g>
<defs>
<clipPath id="clip0_358_2041">
<rect width="399.111" height="136" fill="white" transform="translate(0.888641 0.788086)"/>
</clipPath>
</defs>
</svg>
