<?xml version="1.0" standalone="no"?>
<!DOCTYPE svg PUBLIC "-//W3C//DTD SVG 20010904//EN"
 "http://www.w3.org/TR/2001/REC-SVG-20010904/DTD/svg10.dtd">
<svg version="1.0" xmlns="http://www.w3.org/2000/svg"
 width="512.000000pt" height="512.000000pt" viewBox="0 0 512.000000 512.000000"
 preserveAspectRatio="xMidYMid meet">

<g transform="translate(0.000000,512.000000) scale(0.100000,-0.100000)"
fill="currentColor" stroke="none">
<path d="M2375 5114 c-467 -50 -832 -180 -1205 -429 -158 -105 -294 -220 -440
-371 -385 -398 -627 -886 -707 -1423 -21 -144 -24 -492 -5 -631 64 -461 256
-905 562 -1299 l72 -93 392 390 c335 335 397 392 434 403 112 33 216 -71 183
-183 -11 -37 -69 -99 -403 -434 l-390 -392 93 -72 c731 -569 1599 -725 2419
-436 149 53 404 181 545 273 402 266 725 630 935 1057 120 245 198 493 237
755 24 163 24 505 0 661 -71 460 -256 882 -557 1269 l-72 93 -392 -390 c-335
-334 -397 -392 -433 -403 -113 -33 -217 71 -184 184 11 36 68 98 403 433 l390
392 -93 72 c-385 299 -819 490 -1259 555 -102 15 -444 27 -525 19z m240 -1026
c220 -127 415 -242 434 -256 61 -45 61 -47 61 -524 l1 -433 287 -165 c458
-262 467 -268 491 -310 21 -37 21 -48 21 -529 0 -542 0 -537 -61 -583 -19 -14
-216 -130 -439 -259 -365 -210 -409 -233 -450 -233 -39 0 -69 14 -215 99 -93
54 -282 163 -420 242 -137 80 -258 152 -269 161 -44 39 -46 58 -46 514 l0 433
-322 185 c-455 262 -433 248 -457 290 -21 37 -21 47 -21 529 0 519 1 533 46
573 26 23 833 489 864 499 14 4 41 6 60 3 19 -3 207 -105 435 -236z"/>
<path d="M1915 3864 c-126 -74 -236 -138 -243 -142 -7 -5 76 -59 230 -147 133
-77 247 -141 253 -143 10 -2 425 230 488 273 15 10 -16 31 -229 153 -135 78
-251 142 -257 141 -7 0 -115 -61 -242 -135z"/>
<path d="M1510 3163 l1 -288 191 -110 c105 -60 218 -125 250 -143 l58 -33 0
289 0 290 -245 141 c-134 78 -247 141 -250 141 -3 0 -5 -129 -5 -287z"/>
<path d="M2553 3308 l-243 -141 0 -289 0 -289 58 33 c32 18 145 83 250 143
l192 110 0 288 c0 158 -3 287 -7 286 -5 0 -117 -63 -250 -141z"/>
<path d="M2713 2477 c-134 -78 -243 -144 -243 -148 0 -3 110 -70 245 -148
l246 -142 244 141 c135 78 245 145 245 149 0 6 -472 283 -489 287 -3 1 -115
-62 -248 -139z"/>
<path d="M2312 1780 l3 -292 248 -143 247 -143 -2 291 -3 291 -205 119 c-113
65 -224 129 -248 143 l-42 25 2 -291z"/>
<path d="M3360 1926 l-245 -142 -3 -292 -2 -291 182 105 c101 58 213 124 251
145 l67 40 0 289 c0 160 -1 290 -2 289 -2 0 -113 -65 -248 -143z"/>
</g>
</svg>
