<svg width="60" height="60" viewBox="0 0 60 60" fill="none" xmlns="http://www.w3.org/2000/svg">
<g clip-path="url(#clip0_63_151)">
<path d="M30 59.5C13.6955 59.5 0.5 46.3057 0.5 30C0.5 13.6943 13.6943 0.5 30 0.5C46.3057 0.5 59.5 13.6943 59.5 30C59.5 46.3057 46.3057 59.5 30 59.5ZM30 4.1875C24.8948 4.1875 19.9042 5.70138 15.6593 8.53769C11.4145 11.374 8.10605 15.4054 6.15236 20.122C4.19867 24.8386 3.6875 30.0286 4.68348 35.0358C5.67946 40.0429 8.13786 44.6423 11.7478 48.2522C15.3577 51.8621 19.9571 54.3205 24.9642 55.3165C29.9714 56.3125 35.1614 55.8013 39.878 53.8476C44.5946 51.894 48.626 48.5855 51.4623 44.3407C54.2986 40.0958 55.8125 35.1052 55.8125 30C55.8145 26.6097 55.1482 23.2523 53.8517 20.1197C52.5551 16.987 50.6539 14.1407 48.2566 11.7434C45.8593 9.34611 43.013 7.44485 39.8803 6.14835C36.7477 4.85185 33.3903 4.18553 30 4.1875Z" fill="currentColor"/>
<path d="M32.2378 52.4442L7.5557 27.7622C7.23822 27.4111 7.06788 26.9515 7.07995 26.4784C7.09201 26.0052 7.28556 25.5549 7.62052 25.2205C7.95548 24.8861 8.4062 24.6934 8.87935 24.6821C9.35251 24.6709 9.81186 24.8421 10.1623 25.1602L34.8397 49.8376C35.1709 50.1862 35.3528 50.6504 35.3467 51.1311C35.3405 51.6119 35.1468 52.0713 34.8068 52.4113C34.4668 52.7512 34.0074 52.945 33.5267 52.9511C33.0459 52.9573 32.5817 52.7754 32.2331 52.4442H32.2378ZM40.628 49.1013L10.8975 19.3708C10.5663 19.0222 10.3844 18.558 10.3906 18.0773C10.3967 17.5965 10.5905 17.1371 10.9305 16.7971C11.2704 16.4571 11.7298 16.2634 12.2106 16.2573C12.6914 16.2511 13.1555 16.433 13.5041 16.7642L43.2346 46.4947C43.5657 46.8432 43.7476 47.3074 43.7415 47.7882C43.7353 48.269 43.5416 48.7283 43.2016 49.0683C42.8616 49.4083 42.4023 49.602 41.9215 49.6082C41.4407 49.6143 40.9766 49.4324 40.628 49.1013ZM46.4945 43.2347L16.7641 13.5042C16.4329 13.1556 16.251 12.6915 16.2572 12.2107C16.2633 11.7299 16.457 11.2705 16.797 10.9306C17.137 10.5906 17.5964 10.3968 18.0772 10.3907C18.5579 10.3845 19.0221 10.5664 19.3707 10.8976L49.1012 40.6281C49.4323 40.9767 49.6142 41.4408 49.6081 41.9216C49.6019 42.4024 49.4082 42.8617 49.0682 43.2017C48.7282 43.5417 48.2689 43.7354 47.7881 43.7416C47.3073 43.7477 46.8431 43.5658 46.4945 43.2347ZM49.8375 34.8399L25.1601 10.1624C24.8289 9.81383 24.647 9.34966 24.6531 8.86888C24.6593 8.3881 24.853 7.92875 25.193 7.58876C25.533 7.24877 25.9924 7.05504 26.4731 7.04889C26.9539 7.04273 27.4181 7.22463 27.7667 7.55581L52.4441 32.2379C52.7616 32.5889 52.9319 33.0485 52.9199 33.5217C52.9078 33.9948 52.7142 34.4452 52.3793 34.7795C52.0443 35.1139 51.5936 35.3067 51.1204 35.3179C50.6473 35.3291 50.1879 35.158 49.8375 34.8399Z" fill="currentColor"/>
<path d="M7.55571 34.8398C7.2102 34.4941 7.01611 34.0253 7.01611 33.5365C7.01611 33.0478 7.2102 32.579 7.55571 32.2332L32.2378 7.55581C32.4056 7.37087 32.6093 7.22197 32.8365 7.11813C33.0636 7.0143 33.3095 6.95771 33.5592 6.95178C33.8089 6.94586 34.0572 6.99072 34.289 7.08366C34.5209 7.1766 34.7314 7.31567 34.9078 7.49244C35.0843 7.66921 35.223 7.87998 35.3155 8.11197C35.4081 8.34396 35.4525 8.59234 35.4461 8.84202C35.4397 9.0917 35.3827 9.33749 35.2785 9.56446C35.1742 9.79143 35.025 9.99486 34.8398 10.1624L10.1623 34.8398C9.81657 35.1854 9.34779 35.3794 8.85901 35.3794C8.37023 35.3794 7.90144 35.1854 7.55571 34.8398ZM10.8987 43.2347C10.5531 42.8889 10.3591 42.4202 10.3591 41.9314C10.3591 41.4426 10.5531 40.9738 10.8987 40.6281L40.6291 10.8976C40.9777 10.5664 41.4419 10.3845 41.9227 10.3907C42.4034 10.3968 42.8628 10.5906 43.2028 10.9306C43.5428 11.2705 43.7365 11.7299 43.7426 12.2107C43.7488 12.6915 43.5669 13.1556 43.2357 13.5042L13.5053 43.2347C13.1595 43.5802 12.6907 43.7743 12.202 43.7743C11.7132 43.7743 11.2444 43.5802 10.8987 43.2347ZM16.7652 49.1013C16.4197 48.7555 16.2256 48.2867 16.2256 47.798C16.2256 47.3092 16.4197 46.8404 16.7652 46.4947L46.4957 16.7642C46.8443 16.433 47.3085 16.2511 47.7892 16.2573C48.27 16.2634 48.7294 16.4571 49.0694 16.7971C49.4093 17.1371 49.6031 17.5965 49.6092 18.0773C49.6154 18.558 49.4335 19.0222 49.1023 19.3708L19.3718 49.1013C19.0261 49.4468 18.5573 49.6409 18.0685 49.6409C17.5798 49.6409 17.111 49.4468 16.7652 49.1013ZM25.1601 52.4442C24.8146 52.0985 24.6205 51.6297 24.6205 51.1409C24.6205 50.6521 24.8146 50.1833 25.1601 49.8376L49.8375 25.1602C50.1861 24.829 50.6503 24.6471 51.131 24.6532C51.6118 24.6594 52.0712 24.8531 52.4112 25.1931C52.7511 25.5331 52.9449 25.9925 52.951 26.4732C52.9572 26.954 52.7753 27.4182 52.4441 27.7668L27.7621 52.4442C27.4165 52.7883 26.9487 52.9815 26.4611 52.9815C25.9734 52.9815 25.5056 52.7883 25.1601 52.4442Z" fill="currentColor"/>
</g>
<defs>
<clipPath id="clip0_63_151">
<rect width="59" height="59" fill="white" transform="translate(0.5 0.5)"/>
</clipPath>
</defs>
</svg>
