<?xml version="1.0" encoding="UTF-8" standalone="no"?>
<!DOCTYPE svg PUBLIC "-//W3C//DTD SVG 1.1//EN" "http://www.w3.org/Graphics/SVG/1.1/DTD/svg11.dtd">
<svg xmlns="http://www.w3.org/2000/svg" version="1.1" viewBox="0.00 0.00 277.00 235.00">
<g stroke-width="2.00" fill="none" stroke-linecap="butt">




</g>

<path fill="#708b2c" d="
  M 118.90 87.72
  Q 105.51 82.18 101.30 68.84
  Q 99.53 63.21 99.77 50.45
  Q 100.07 35.07 99.82 18.04
  A 0.27 0.27 0.0 0 1 100.09 17.76
  L 118.72 17.72
  A 0.53 0.52 0.0 0 1 119.25 18.24
  Q 119.20 38.39 119.35 58.75
  Q 119.40 64.38 122.73 68.59
  A 2.35 2.31 26.1 0 1 123.24 70.04
  L 123.28 88.20
  A 0.58 0.58 0.0 0 1 122.61 88.77
  Q 120.66 88.45 118.90 87.72
  Z"
/>
<rect fill="#708b2c" x="135.48" y="17.74" width="19.56" height="70.08" rx="0.45"/>
<path fill="#73160f" d="
  M 193.44 113.22
  C 190.93 95.58 181.55 79.28 166.89 68.61
  A 1.98 1.97 -71.9 0 1 166.09 67.02
  L 166.06 47.99
  Q 166.06 46.70 167.20 47.30
  Q 190.24 59.55 202.59 82.63
  Q 203.81 84.91 206.34 84.49
  Q 213.12 83.34 219.56 83.62
  C 239.49 84.47 253.04 98.59 254.24 118.18
  C 255.19 133.70 249.59 150.09 238.41 160.97
  Q 229.16 169.98 214.93 173.57
  Q 207.85 175.35 200.98 172.90
  C 196.18 171.19 193.24 175.93 190.55 178.91
  C 176.71 194.24 158.03 204.99 137.79 206.73
  C 105.82 209.49 73.88 196.99 56.58 169.23
  C 49.00 157.07 43.82 143.02 42.81 128.74
  C 40.43 95.00 57.49 63.77 87.08 47.57
  A 0.45 0.45 0.0 0 1 87.74 47.96
  L 87.73 68.04
  Q 87.73 68.95 87.02 69.53
  Q 66.32 86.06 61.78 111.41
  C 57.28 136.52 68.62 161.86 88.80 176.39
  C 108.96 190.92 135.45 192.69 157.49 181.67
  C 182.78 169.02 197.43 141.38 193.44 113.22
  Z
  M 222.78 157.00
  C 235.63 146.81 241.26 131.13 236.64 115.48
  Q 235.21 110.64 231.78 106.29
  C 227.72 101.14 219.64 98.01 214.04 102.47
  C 212.40 103.77 211.07 106.41 211.39 108.49
  Q 214.41 128.06 208.19 148.49
  C 207.36 151.22 204.85 156.10 207.21 158.74
  C 211.62 163.67 218.43 160.46 222.78 157.00
  Z"
/>
<path fill="#402419" d="
  M 93.70 88.99
  A 1.34 1.34 0.0 0 1 91.91 88.39
  L 91.75 88.09
  A 6.36 4.94 -26.6 0 1 95.23 80.82
  L 95.93 80.48
  A 6.36 4.94 -26.6 0 1 103.83 82.05
  L 103.98 82.35
  A 1.34 1.34 0.0 0 1 103.38 84.15
  L 93.70 88.99
  Z"
/>
<path fill="#402419" d="
  M 73.49 112.97
  A 0.89 0.88 59.4 0 0 74.96 113.35
  Q 76.40 111.92 77.03 109.95
  C 78.90 104.13 80.42 98.85 85.31 94.57
  C 88.07 92.16 92.19 94.43 89.54 97.91
  Q 87.28 100.86 84.61 103.65
  Q 83.15 105.17 84.98 106.20
  L 85.63 106.56
  Q 87.71 107.73 88.93 105.67
  Q 92.81 99.12 97.88 96.23
  C 100.43 94.77 105.24 94.05 106.72 97.69
  C 107.85 100.47 106.12 102.46 103.83 103.62
  C 98.62 106.26 93.47 109.74 91.98 115.63
  C 91.28 118.38 93.40 119.84 95.37 121.14
  C 97.22 122.36 97.96 124.31 100.22 124.96
  Q 108.04 127.23 117.13 128.05
  Q 129.93 129.20 142.84 129.73
  Q 160.19 130.43 175.39 126.22
  Q 179.37 125.12 187.36 121.43
  Q 187.87 121.20 187.94 121.75
  Q 188.15 123.26 188.09 124.82
  Q 187.29 144.73 175.91 159.30
  C 157.92 182.33 123.58 190.26 98.09 175.05
  C 76.42 162.12 63.20 136.82 68.81 111.53
  Q 69.13 110.09 70.33 109.29
  A 1.55 1.55 0.0 0 1 72.67 110.15
  L 73.49 112.97
  Z
  M 167.73 143.32
  A 2.97 2.97 0.0 0 0 164.76 140.35
  A 2.97 2.97 0.0 0 0 161.79 143.32
  A 2.97 2.97 0.0 0 0 164.76 146.29
  A 2.97 2.97 0.0 0 0 167.73 143.32
  Z
  M 162.88 157.73
  A 6.53 6.53 0.0 0 0 156.35 151.20
  A 6.53 6.53 0.0 0 0 149.82 157.73
  A 6.53 6.53 0.0 0 0 156.35 164.26
  A 6.53 6.53 0.0 0 0 162.88 157.73
  Z"
/>
<ellipse fill="#402419" cx="0.00" cy="0.00" transform="translate(73.77,99.85) rotate(107.8)" rx="3.13" ry="2.75"/>

<path fill="#73160f" d="
  M 181.37 120.58
  C 161.11 128.68 137.62 126.36 116.56 124.44
  Q 107.89 123.65 99.92 121.40
  Q 97.65 120.76 96.57 118.67
  A 0.56 0.55 72.4 0 1 96.98 117.87
  Q 119.10 114.65 140.85 112.73
  Q 162.24 110.84 183.25 112.84
  Q 186.90 113.19 187.94 116.80
  A 0.93 0.93 0.0 0 1 187.45 117.89
  Q 184.48 119.33 181.37 120.58
  Z"
/>
</svg>
